<svg xmlns="http://www.w3.org/2000/svg" xmlns:xlink="http://www.w3.org/1999/xlink" width="442" zoomAndPan="magnify" viewBox="0 0 331.5 331.500004" height="442" preserveAspectRatio="xMidYMid meet" version="1.0"><defs><g/><clipPath id="68daed6aab"><path d="M 75.144531 75.492188 L 255.894531 75.492188 L 255.894531 256.242188 L 75.144531 256.242188 Z M 75.144531 75.492188 " clip-rule="nonzero"/></clipPath></defs><g fill="#ffffff" fill-opacity="1"><g transform="translate(123.22675, 177.804771)"><g><path d="M 12.453125 0 L 9.28125 0 L 9.28125 -21.078125 L 2.90625 -18.734375 L 2.90625 -21.609375 L 11.96875 -25 L 12.453125 -25 Z M 12.453125 0 "/></g></g></g><g fill="#ffffff" fill-opacity="1"><g transform="translate(142.877769, 177.804771)"><g><path d="M 17.671875 -10.609375 C 17.671875 -6.910156 17.035156 -4.160156 15.765625 -2.359375 C 14.503906 -0.554688 12.53125 0.34375 9.84375 0.34375 C 7.1875 0.34375 5.21875 -0.535156 3.9375 -2.296875 C 2.664062 -4.054688 2.007812 -6.6875 1.96875 -10.1875 L 1.96875 -14.40625 C 1.96875 -18.0625 2.597656 -20.773438 3.859375 -22.546875 C 5.128906 -24.328125 7.113281 -25.21875 9.8125 -25.21875 C 12.488281 -25.21875 14.457031 -24.359375 15.71875 -22.640625 C 16.988281 -20.929688 17.640625 -18.289062 17.671875 -14.71875 Z M 14.515625 -14.9375 C 14.515625 -17.613281 14.132812 -19.5625 13.375 -20.78125 C 12.625 -22.007812 11.4375 -22.625 9.8125 -22.625 C 8.195312 -22.625 7.015625 -22.015625 6.265625 -20.796875 C 5.523438 -19.578125 5.144531 -17.703125 5.125 -15.171875 L 5.125 -10.125 C 5.125 -7.425781 5.515625 -5.4375 6.296875 -4.15625 C 7.078125 -2.875 8.257812 -2.234375 9.84375 -2.234375 C 11.40625 -2.234375 12.5625 -2.835938 13.3125 -4.046875 C 14.070312 -5.253906 14.472656 -7.160156 14.515625 -9.765625 Z M 14.515625 -14.9375 "/></g></g></g><g fill="#ffffff" fill-opacity="1"><g transform="translate(162.528788, 177.804771)"><g><path d="M 17.671875 -10.609375 C 17.671875 -6.910156 17.035156 -4.160156 15.765625 -2.359375 C 14.503906 -0.554688 12.53125 0.34375 9.84375 0.34375 C 7.1875 0.34375 5.21875 -0.535156 3.9375 -2.296875 C 2.664062 -4.054688 2.007812 -6.6875 1.96875 -10.1875 L 1.96875 -14.40625 C 1.96875 -18.0625 2.597656 -20.773438 3.859375 -22.546875 C 5.128906 -24.328125 7.113281 -25.21875 9.8125 -25.21875 C 12.488281 -25.21875 14.457031 -24.359375 15.71875 -22.640625 C 16.988281 -20.929688 17.640625 -18.289062 17.671875 -14.71875 Z M 14.515625 -14.9375 C 14.515625 -17.613281 14.132812 -19.5625 13.375 -20.78125 C 12.625 -22.007812 11.4375 -22.625 9.8125 -22.625 C 8.195312 -22.625 7.015625 -22.015625 6.265625 -20.796875 C 5.523438 -19.578125 5.144531 -17.703125 5.125 -15.171875 L 5.125 -10.125 C 5.125 -7.425781 5.515625 -5.4375 6.296875 -4.15625 C 7.078125 -2.875 8.257812 -2.234375 9.84375 -2.234375 C 11.40625 -2.234375 12.5625 -2.835938 13.3125 -4.046875 C 14.070312 -5.253906 14.472656 -7.160156 14.515625 -9.765625 Z M 14.515625 -14.9375 "/></g></g></g><g fill="#ffffff" fill-opacity="1"><g transform="translate(182.179803, 177.804771)"><g><path d="M 1.796875 -20.09375 C 1.796875 -21.59375 2.269531 -22.820312 3.21875 -23.78125 C 4.175781 -24.75 5.398438 -25.234375 6.890625 -25.234375 C 8.398438 -25.234375 9.625 -24.742188 10.5625 -23.765625 C 11.507812 -22.796875 11.984375 -21.539062 11.984375 -20 L 11.984375 -18.78125 C 11.984375 -17.28125 11.503906 -16.050781 10.546875 -15.09375 C 9.597656 -14.144531 8.390625 -13.671875 6.921875 -13.671875 C 5.441406 -13.671875 4.21875 -14.144531 3.25 -15.09375 C 2.28125 -16.050781 1.796875 -17.320312 1.796875 -18.90625 Z M 4.15625 -18.78125 C 4.15625 -17.894531 4.40625 -17.160156 4.90625 -16.578125 C 5.40625 -16.003906 6.078125 -15.71875 6.921875 -15.71875 C 7.734375 -15.71875 8.382812 -15.992188 8.875 -16.546875 C 9.375 -17.109375 9.625 -17.875 9.625 -18.84375 L 9.625 -20.09375 C 9.625 -20.988281 9.378906 -21.722656 8.890625 -22.296875 C 8.398438 -22.878906 7.734375 -23.171875 6.890625 -23.171875 C 6.046875 -23.171875 5.378906 -22.878906 4.890625 -22.296875 C 4.398438 -21.722656 4.15625 -20.96875 4.15625 -20.03125 Z M 13.90625 -6.09375 C 13.90625 -7.59375 14.378906 -8.820312 15.328125 -9.78125 C 16.285156 -10.75 17.507812 -11.234375 19 -11.234375 C 20.5 -11.234375 21.722656 -10.753906 22.671875 -9.796875 C 23.628906 -8.835938 24.109375 -7.566406 24.109375 -5.984375 L 24.109375 -4.765625 C 24.109375 -3.273438 23.632812 -2.046875 22.6875 -1.078125 C 21.738281 -0.117188 20.519531 0.359375 19.03125 0.359375 C 17.550781 0.359375 16.328125 -0.113281 15.359375 -1.0625 C 14.390625 -2.019531 13.90625 -3.289062 13.90625 -4.875 Z M 16.265625 -4.765625 C 16.265625 -3.867188 16.515625 -3.128906 17.015625 -2.546875 C 17.523438 -1.972656 18.195312 -1.6875 19.03125 -1.6875 C 19.851562 -1.6875 20.507812 -1.96875 21 -2.53125 C 21.488281 -3.101562 21.734375 -3.875 21.734375 -4.84375 L 21.734375 -6.09375 C 21.734375 -7 21.484375 -7.734375 20.984375 -8.296875 C 20.492188 -8.867188 19.832031 -9.15625 19 -9.15625 C 18.195312 -9.15625 17.539062 -8.875 17.03125 -8.3125 C 16.519531 -7.75 16.265625 -6.988281 16.265625 -6.03125 Z M 7.640625 -1.875 L 5.84375 -3.015625 L 18 -22.453125 L 19.796875 -21.328125 Z M 7.640625 -1.875 "/></g></g></g><g clip-path="url(#68daed6aab)"><path fill="#ffffff" d="M 165.519531 75.492188 C 167 75.492188 168.476562 75.527344 169.953125 75.601562 C 171.433594 75.671875 172.90625 75.78125 174.378906 75.925781 C 175.851562 76.070312 177.316406 76.253906 178.78125 76.46875 C 180.242188 76.6875 181.699219 76.9375 183.152344 77.226562 C 184.601562 77.515625 186.042969 77.839844 187.480469 78.199219 C 188.914062 78.558594 190.339844 78.953125 191.753906 79.382812 C 193.171875 79.8125 194.574219 80.277344 195.964844 80.773438 C 197.359375 81.273438 198.738281 81.804688 200.105469 82.371094 C 201.472656 82.9375 202.824219 83.535156 204.160156 84.167969 C 205.496094 84.800781 206.816406 85.464844 208.121094 86.164062 C 209.425781 86.859375 210.714844 87.589844 211.980469 88.347656 C 213.25 89.109375 214.5 89.902344 215.730469 90.722656 C 216.960938 91.542969 218.167969 92.394531 219.355469 93.277344 C 220.542969 94.15625 221.710938 95.066406 222.855469 96.003906 C 223.996094 96.945312 225.117188 97.910156 226.210938 98.902344 C 227.308594 99.894531 228.378906 100.914062 229.425781 101.960938 C 230.472656 103.007812 231.492188 104.078125 232.484375 105.175781 C 233.476562 106.269531 234.441406 107.390625 235.382812 108.53125 C 236.320312 109.675781 237.230469 110.84375 238.109375 112.03125 C 238.992188 113.21875 239.84375 114.425781 240.664062 115.65625 C 241.484375 116.886719 242.277344 118.136719 243.039062 119.40625 C 243.796875 120.671875 244.527344 121.960938 245.222656 123.265625 C 245.921875 124.566406 246.585938 125.890625 247.21875 127.226562 C 247.851562 128.5625 248.449219 129.914062 249.015625 131.28125 C 249.582031 132.648438 250.113281 134.027344 250.613281 135.417969 C 251.109375 136.8125 251.574219 138.214844 252.003906 139.632812 C 252.433594 141.046875 252.828125 142.472656 253.1875 143.90625 C 253.546875 145.339844 253.871094 146.785156 254.160156 148.234375 C 254.449219 149.6875 254.699219 151.140625 254.917969 152.605469 C 255.132812 154.070312 255.316406 155.535156 255.460938 157.007812 C 255.605469 158.480469 255.714844 159.953125 255.785156 161.433594 C 255.859375 162.910156 255.894531 164.386719 255.894531 165.867188 C 255.894531 167.34375 255.859375 168.824219 255.785156 170.300781 C 255.714844 171.777344 255.605469 173.253906 255.460938 174.726562 C 255.316406 176.195312 255.132812 177.664062 254.917969 179.128906 C 254.699219 180.589844 254.449219 182.046875 254.160156 183.496094 C 253.871094 184.949219 253.546875 186.390625 253.1875 187.824219 C 252.828125 189.261719 252.433594 190.683594 252.003906 192.101562 C 251.574219 193.515625 251.109375 194.921875 250.613281 196.3125 C 250.113281 197.707031 249.582031 199.085938 249.015625 200.453125 C 248.449219 201.816406 247.851562 203.167969 247.21875 204.507812 C 246.585938 205.84375 245.921875 207.164062 245.222656 208.46875 C 244.527344 209.773438 243.796875 211.058594 243.039062 212.328125 C 242.277344 213.597656 241.484375 214.847656 240.664062 216.074219 C 239.84375 217.304688 238.992188 218.515625 238.109375 219.703125 C 237.230469 220.890625 236.320312 222.054688 235.382812 223.199219 C 234.441406 224.34375 233.476562 225.460938 232.484375 226.558594 C 231.492188 227.65625 230.472656 228.726562 229.425781 229.769531 C 228.378906 230.816406 227.308594 231.835938 226.210938 232.828125 C 225.117188 233.824219 223.996094 234.789062 222.855469 235.726562 C 221.710938 236.664062 220.542969 237.574219 219.355469 238.457031 C 218.167969 239.335938 216.960938 240.1875 215.730469 241.011719 C 214.5 241.832031 213.25 242.625 211.980469 243.382812 C 210.714844 244.144531 209.425781 244.871094 208.121094 245.570312 C 206.816406 246.265625 205.496094 246.933594 204.160156 247.5625 C 202.824219 248.195312 201.472656 248.796875 200.105469 249.363281 C 198.738281 249.929688 197.359375 250.460938 195.964844 250.957031 C 194.574219 251.457031 193.171875 251.921875 191.753906 252.351562 C 190.339844 252.777344 188.914062 253.171875 187.480469 253.53125 C 186.042969 253.890625 184.601562 254.214844 183.152344 254.503906 C 181.699219 254.792969 180.242188 255.046875 178.78125 255.261719 C 177.316406 255.480469 175.851562 255.660156 174.378906 255.804688 C 172.90625 255.949219 171.433594 256.058594 169.953125 256.132812 C 168.476562 256.203125 167 256.242188 165.519531 256.242188 C 164.042969 256.242188 162.5625 256.203125 161.085938 256.132812 C 159.609375 256.058594 158.132812 255.949219 156.660156 255.804688 C 155.191406 255.660156 153.722656 255.480469 152.257812 255.261719 C 150.796875 255.046875 149.339844 254.792969 147.890625 254.503906 C 146.4375 254.214844 144.996094 253.890625 143.5625 253.53125 C 142.125 253.171875 140.703125 252.777344 139.285156 252.351562 C 137.871094 251.921875 136.464844 251.457031 135.074219 250.957031 C 133.679688 250.460938 132.300781 249.929688 130.933594 249.363281 C 129.570312 248.796875 128.21875 248.195312 126.878906 247.5625 C 125.542969 246.933594 124.222656 246.265625 122.917969 245.570312 C 121.613281 244.871094 120.328125 244.144531 119.058594 243.382812 C 117.789062 242.625 116.539062 241.832031 115.3125 241.011719 C 114.082031 240.1875 112.871094 239.335938 111.683594 238.457031 C 110.496094 237.574219 109.332031 236.664062 108.1875 235.726562 C 107.042969 234.789062 105.925781 233.824219 104.828125 232.828125 C 103.730469 231.835938 102.660156 230.816406 101.617188 229.769531 C 100.570312 228.726562 99.550781 227.65625 98.558594 226.558594 C 97.5625 225.460938 96.597656 224.34375 95.660156 223.199219 C 94.722656 222.054688 93.8125 220.890625 92.929688 219.703125 C 92.050781 218.515625 91.199219 217.304688 90.375 216.074219 C 89.554688 214.847656 88.761719 213.597656 88.003906 212.328125 C 87.242188 211.058594 86.515625 209.773438 85.816406 208.46875 C 85.121094 207.164062 84.453125 205.84375 83.824219 204.507812 C 83.191406 203.167969 82.589844 201.816406 82.023438 200.453125 C 81.457031 199.085938 80.925781 197.707031 80.429688 196.3125 C 79.929688 194.921875 79.464844 193.515625 79.035156 192.101562 C 78.609375 190.683594 78.214844 189.261719 77.855469 187.824219 C 77.496094 186.390625 77.171875 184.949219 76.882812 183.496094 C 76.59375 182.046875 76.339844 180.589844 76.125 179.128906 C 75.90625 177.664062 75.726562 176.195312 75.582031 174.726562 C 75.433594 173.253906 75.328125 171.777344 75.253906 170.300781 C 75.179688 168.824219 75.144531 167.34375 75.144531 165.867188 C 75.144531 164.386719 75.179688 162.910156 75.253906 161.433594 C 75.328125 159.953125 75.433594 158.480469 75.582031 157.007812 C 75.726562 155.535156 75.90625 154.070312 76.125 152.605469 C 76.339844 151.140625 76.59375 149.6875 76.882812 148.234375 C 77.171875 146.785156 77.496094 145.339844 77.855469 143.90625 C 78.214844 142.472656 78.609375 141.046875 79.035156 139.632812 C 79.464844 138.214844 79.929688 136.8125 80.429688 135.417969 C 80.925781 134.027344 81.457031 132.648438 82.023438 131.28125 C 82.589844 129.914062 83.191406 128.5625 83.824219 127.226562 C 84.453125 125.890625 85.121094 124.566406 85.816406 123.265625 C 86.515625 121.960938 87.242188 120.671875 88.003906 119.40625 C 88.761719 118.136719 89.554688 116.886719 90.375 115.65625 C 91.199219 114.425781 92.050781 113.21875 92.929688 112.03125 C 93.8125 110.84375 94.722656 109.675781 95.660156 108.53125 C 96.597656 107.390625 97.5625 106.269531 98.558594 105.175781 C 99.550781 104.078125 100.570312 103.007812 101.617188 101.960938 C 102.660156 100.914062 103.730469 99.894531 104.828125 98.902344 C 105.925781 97.910156 107.042969 96.945312 108.1875 96.003906 C 109.332031 95.066406 110.496094 94.15625 111.683594 93.277344 C 112.871094 92.394531 114.082031 91.542969 115.3125 90.722656 C 116.539062 89.902344 117.789062 89.109375 119.058594 88.347656 C 120.328125 87.589844 121.613281 86.859375 122.917969 86.164062 C 124.222656 85.464844 125.542969 84.800781 126.878906 84.167969 C 128.21875 83.535156 129.570312 82.9375 130.933594 82.371094 C 132.300781 81.804688 133.679688 81.273438 135.074219 80.773438 C 136.464844 80.277344 137.871094 79.8125 139.285156 79.382812 C 140.703125 78.953125 142.125 78.558594 143.5625 78.199219 C 144.996094 77.839844 146.4375 77.515625 147.890625 77.226562 C 149.339844 76.9375 150.796875 76.6875 152.257812 76.46875 C 153.722656 76.253906 155.191406 76.070312 156.660156 75.925781 C 158.132812 75.78125 159.609375 75.671875 161.085938 75.601562 C 162.5625 75.527344 164.042969 75.492188 165.519531 75.492188 L 165.519531 98.988281 C 164.425781 98.988281 163.332031 99.015625 162.238281 99.070312 C 161.144531 99.125 160.054688 99.203125 158.964844 99.3125 C 157.875 99.417969 156.789062 99.550781 155.707031 99.710938 C 154.625 99.875 153.546875 100.058594 152.472656 100.273438 C 151.398438 100.488281 150.332031 100.726562 149.269531 100.992188 C 148.207031 101.257812 147.152344 101.550781 146.105469 101.867188 C 145.058594 102.1875 144.019531 102.53125 142.988281 102.898438 C 141.960938 103.265625 140.9375 103.660156 139.925781 104.078125 C 138.917969 104.5 137.914062 104.941406 136.925781 105.410156 C 135.9375 105.878906 134.960938 106.371094 133.996094 106.886719 C 133.027344 107.402344 132.078125 107.941406 131.136719 108.503906 C 130.199219 109.066406 129.273438 109.652344 128.363281 110.257812 C 127.457031 110.867188 126.558594 111.496094 125.679688 112.148438 C 124.800781 112.800781 123.941406 113.476562 123.09375 114.167969 C 122.246094 114.863281 121.417969 115.578125 120.609375 116.3125 C 119.796875 117.046875 119.003906 117.804688 118.230469 118.578125 C 117.457031 119.351562 116.703125 120.144531 115.96875 120.953125 C 115.230469 121.765625 114.519531 122.59375 113.824219 123.441406 C 113.128906 124.285156 112.457031 125.148438 111.804688 126.027344 C 111.152344 126.90625 110.523438 127.800781 109.914062 128.710938 C 109.304688 129.621094 108.71875 130.546875 108.15625 131.484375 C 107.59375 132.421875 107.054688 133.375 106.539062 134.339844 C 106.023438 135.304688 105.53125 136.28125 105.0625 137.273438 C 104.597656 138.261719 104.152344 139.261719 103.734375 140.273438 C 103.316406 141.285156 102.921875 142.304688 102.550781 143.335938 C 102.183594 144.367188 101.839844 145.40625 101.523438 146.453125 C 101.203125 147.5 100.914062 148.554688 100.648438 149.617188 C 100.382812 150.679688 100.140625 151.746094 99.929688 152.820312 C 99.714844 153.894531 99.527344 154.972656 99.367188 156.054688 C 99.207031 157.136719 99.070312 158.222656 98.964844 159.3125 C 98.859375 160.402344 98.777344 161.492188 98.722656 162.585938 C 98.667969 163.679688 98.644531 164.773438 98.644531 165.867188 C 98.644531 166.960938 98.667969 168.054688 98.722656 169.148438 C 98.777344 170.242188 98.859375 171.332031 98.964844 172.421875 C 99.070312 173.511719 99.207031 174.597656 99.367188 175.679688 C 99.527344 176.761719 99.714844 177.839844 99.929688 178.914062 C 100.140625 179.988281 100.382812 181.054688 100.648438 182.117188 C 100.914062 183.179688 101.203125 184.234375 101.523438 185.28125 C 101.839844 186.328125 102.183594 187.367188 102.550781 188.398438 C 102.921875 189.425781 103.316406 190.449219 103.734375 191.460938 C 104.152344 192.46875 104.597656 193.472656 105.0625 194.460938 C 105.53125 195.449219 106.023438 196.425781 106.539062 197.390625 C 107.054688 198.359375 107.59375 199.308594 108.15625 200.25 C 108.71875 201.1875 109.304688 202.113281 109.914062 203.019531 C 110.523438 203.929688 111.152344 204.824219 111.804688 205.707031 C 112.457031 206.585938 113.128906 207.445312 113.824219 208.292969 C 114.519531 209.140625 115.230469 209.96875 115.96875 210.777344 C 116.703125 211.589844 117.457031 212.382812 118.230469 213.15625 C 119.003906 213.929688 119.796875 214.683594 120.609375 215.417969 C 121.417969 216.15625 122.246094 216.867188 123.09375 217.5625 C 123.941406 218.257812 124.800781 218.929688 125.679688 219.582031 C 126.558594 220.234375 127.457031 220.863281 128.363281 221.472656 C 129.273438 222.082031 130.199219 222.667969 131.136719 223.230469 C 132.078125 223.792969 133.027344 224.332031 133.996094 224.847656 C 134.960938 225.363281 135.9375 225.855469 136.925781 226.324219 C 137.914062 226.789062 138.917969 227.234375 139.925781 227.652344 C 140.9375 228.070312 141.960938 228.464844 142.988281 228.835938 C 144.019531 229.203125 145.058594 229.546875 146.105469 229.863281 C 147.152344 230.183594 148.207031 230.472656 149.269531 230.738281 C 150.332031 231.003906 151.398438 231.246094 152.472656 231.457031 C 153.546875 231.671875 154.625 231.859375 155.707031 232.019531 C 156.789062 232.179688 157.875 232.316406 158.964844 232.421875 C 160.054688 232.527344 161.144531 232.609375 162.238281 232.664062 C 163.332031 232.71875 164.425781 232.742188 165.519531 232.742188 C 166.613281 232.742188 167.707031 232.71875 168.800781 232.664062 C 169.894531 232.609375 170.984375 232.527344 172.074219 232.421875 C 173.164062 232.316406 174.25 232.179688 175.332031 232.019531 C 176.414062 231.859375 177.492188 231.671875 178.566406 231.457031 C 179.640625 231.246094 180.707031 231.003906 181.769531 230.738281 C 182.832031 230.472656 183.886719 230.183594 184.933594 229.863281 C 185.980469 229.546875 187.019531 229.203125 188.050781 228.835938 C 189.082031 228.464844 190.101562 228.070312 191.113281 227.652344 C 192.125 227.234375 193.125 226.789062 194.113281 226.324219 C 195.101562 225.855469 196.082031 225.363281 197.046875 224.847656 C 198.011719 224.332031 198.964844 223.792969 199.902344 223.230469 C 200.839844 222.667969 201.765625 222.082031 202.675781 221.472656 C 203.585938 220.863281 204.480469 220.234375 205.359375 219.582031 C 206.238281 218.929688 207.101562 218.257812 207.945312 217.5625 C 208.792969 216.867188 209.621094 216.15625 210.433594 215.417969 C 211.242188 214.683594 212.035156 213.929688 212.808594 213.15625 C 213.582031 212.382812 214.339844 211.589844 215.074219 210.777344 C 215.808594 209.96875 216.523438 209.140625 217.21875 208.292969 C 217.910156 207.445312 218.585938 206.585938 219.238281 205.707031 C 219.890625 204.824219 220.519531 203.929688 221.125 203.019531 C 221.734375 202.113281 222.320312 201.1875 222.882812 200.25 C 223.445312 199.308594 223.984375 198.359375 224.5 197.390625 C 225.015625 196.425781 225.507812 195.449219 225.976562 194.460938 C 226.445312 193.472656 226.886719 192.46875 227.308594 191.460938 C 227.726562 190.449219 228.121094 189.425781 228.488281 188.398438 C 228.855469 187.367188 229.199219 186.328125 229.519531 185.28125 C 229.835938 184.234375 230.128906 183.179688 230.394531 182.117188 C 230.660156 181.054688 230.898438 179.988281 231.113281 178.914062 C 231.328125 177.839844 231.511719 176.761719 231.675781 175.679688 C 231.835938 174.597656 231.96875 173.511719 232.074219 172.421875 C 232.183594 171.332031 232.261719 170.242188 232.316406 169.148438 C 232.371094 168.054688 232.398438 166.960938 232.398438 165.867188 C 232.398438 164.773438 232.371094 163.679688 232.316406 162.585938 C 232.261719 161.492188 232.183594 160.402344 232.074219 159.3125 C 231.96875 158.222656 231.835938 157.136719 231.675781 156.054688 C 231.511719 154.972656 231.328125 153.894531 231.113281 152.820312 C 230.898438 151.746094 230.660156 150.679688 230.394531 149.617188 C 230.128906 148.554688 229.835938 147.5 229.519531 146.453125 C 229.199219 145.40625 228.855469 144.367188 228.488281 143.335938 C 228.121094 142.304688 227.726562 141.285156 227.308594 140.273438 C 226.886719 139.261719 226.445312 138.261719 225.976562 137.273438 C 225.507812 136.28125 225.015625 135.304688 224.5 134.339844 C 223.984375 133.375 223.445312 132.421875 222.882812 131.484375 C 222.320312 130.546875 221.734375 129.621094 221.125 128.710938 C 220.519531 127.800781 219.890625 126.90625 219.238281 126.027344 C 218.585938 125.148438 217.910156 124.285156 217.21875 123.441406 C 216.523438 122.59375 215.808594 121.765625 215.074219 120.953125 C 214.339844 120.144531 213.582031 119.351562 212.808594 118.578125 C 212.035156 117.804688 211.242188 117.046875 210.433594 116.3125 C 209.621094 115.578125 208.792969 114.863281 207.945312 114.167969 C 207.101562 113.476562 206.238281 112.800781 205.359375 112.148438 C 204.480469 111.496094 203.585938 110.867188 202.675781 110.257812 C 201.765625 109.652344 200.839844 109.066406 199.902344 108.503906 C 198.964844 107.941406 198.011719 107.402344 197.046875 106.886719 C 196.082031 106.371094 195.101562 105.878906 194.113281 105.410156 C 193.125 104.941406 192.125 104.5 191.113281 104.078125 C 190.101562 103.660156 189.082031 103.265625 188.050781 102.898438 C 187.019531 102.53125 185.980469 102.1875 184.933594 101.867188 C 183.886719 101.550781 182.832031 101.257812 181.769531 100.992188 C 180.707031 100.726562 179.640625 100.488281 178.566406 100.273438 C 177.492188 100.058594 176.414062 99.875 175.332031 99.710938 C 174.25 99.550781 173.164062 99.417969 172.074219 99.3125 C 170.984375 99.203125 169.894531 99.125 168.800781 99.070312 C 167.707031 99.015625 166.613281 98.988281 165.519531 98.988281 Z M 165.519531 75.492188 " fill-opacity="1" fill-rule="nonzero"/><path fill="#b2ceaf" d="M 165.519531 75.492188 C 167 75.492188 168.476562 75.527344 169.953125 75.601562 C 171.433594 75.671875 172.90625 75.78125 174.378906 75.925781 C 175.851562 76.070312 177.316406 76.253906 178.78125 76.46875 C 180.242188 76.6875 181.699219 76.9375 183.152344 77.226562 C 184.601562 77.515625 186.042969 77.839844 187.480469 78.199219 C 188.914062 78.558594 190.339844 78.953125 191.753906 79.382812 C 193.171875 79.8125 194.574219 80.277344 195.964844 80.773438 C 197.359375 81.273438 198.738281 81.804688 200.105469 82.371094 C 201.472656 82.9375 202.824219 83.535156 204.160156 84.167969 C 205.496094 84.800781 206.816406 85.464844 208.121094 86.164062 C 209.425781 86.859375 210.714844 87.589844 211.980469 88.347656 C 213.25 89.109375 214.5 89.902344 215.730469 90.722656 C 216.960938 91.542969 218.167969 92.394531 219.355469 93.277344 C 220.542969 94.15625 221.710938 95.066406 222.855469 96.003906 C 223.996094 96.945312 225.117188 97.910156 226.210938 98.902344 C 227.308594 99.894531 228.378906 100.914062 229.425781 101.960938 C 230.472656 103.007812 231.492188 104.078125 232.484375 105.175781 C 233.476562 106.269531 234.441406 107.390625 235.382812 108.53125 C 236.320312 109.675781 237.230469 110.84375 238.109375 112.03125 C 238.992188 113.21875 239.84375 114.425781 240.664062 115.65625 C 241.484375 116.886719 242.277344 118.136719 243.039062 119.40625 C 243.796875 120.671875 244.527344 121.960938 245.222656 123.265625 C 245.921875 124.566406 246.585938 125.890625 247.21875 127.226562 C 247.851562 128.5625 248.449219 129.914062 249.015625 131.28125 C 249.582031 132.648438 250.113281 134.027344 250.613281 135.417969 C 251.109375 136.8125 251.574219 138.214844 252.003906 139.632812 C 252.433594 141.046875 252.828125 142.472656 253.1875 143.90625 C 253.546875 145.339844 253.871094 146.785156 254.160156 148.234375 C 254.449219 149.6875 254.699219 151.140625 254.917969 152.605469 C 255.132812 154.070312 255.316406 155.535156 255.460938 157.007812 C 255.605469 158.480469 255.714844 159.953125 255.785156 161.433594 C 255.859375 162.910156 255.894531 164.386719 255.894531 165.867188 C 255.894531 167.34375 255.859375 168.824219 255.785156 170.300781 C 255.714844 171.777344 255.605469 173.253906 255.460938 174.726562 C 255.316406 176.195312 255.132812 177.664062 254.917969 179.128906 C 254.699219 180.589844 254.449219 182.046875 254.160156 183.496094 C 253.871094 184.949219 253.546875 186.390625 253.1875 187.824219 C 252.828125 189.261719 252.433594 190.683594 252.003906 192.101562 C 251.574219 193.515625 251.109375 194.921875 250.613281 196.3125 C 250.113281 197.707031 249.582031 199.085938 249.015625 200.453125 C 248.449219 201.816406 247.851562 203.167969 247.21875 204.507812 C 246.585938 205.84375 245.921875 207.164062 245.222656 208.46875 C 244.527344 209.773438 243.796875 211.058594 243.039062 212.328125 C 242.277344 213.597656 241.484375 214.847656 240.664062 216.074219 C 239.84375 217.304688 238.992188 218.515625 238.109375 219.703125 C 237.230469 220.890625 236.320312 222.054688 235.382812 223.199219 C 234.441406 224.34375 233.476562 225.460938 232.484375 226.558594 C 231.492188 227.65625 230.472656 228.726562 229.425781 229.769531 C 228.378906 230.816406 227.308594 231.835938 226.210938 232.828125 C 225.117188 233.824219 223.996094 234.789062 222.855469 235.726562 C 221.710938 236.664062 220.542969 237.574219 219.355469 238.457031 C 218.167969 239.335938 216.960938 240.1875 215.730469 241.011719 C 214.5 241.832031 213.25 242.625 211.980469 243.382812 C 210.714844 244.144531 209.425781 244.871094 208.121094 245.570312 C 206.816406 246.265625 205.496094 246.933594 204.160156 247.5625 C 202.824219 248.195312 201.472656 248.796875 200.105469 249.363281 C 198.738281 249.929688 197.359375 250.460938 195.964844 250.957031 C 194.574219 251.457031 193.171875 251.921875 191.753906 252.351562 C 190.339844 252.777344 188.914062 253.171875 187.480469 253.53125 C 186.042969 253.890625 184.601562 254.214844 183.152344 254.503906 C 181.699219 254.792969 180.242188 255.046875 178.78125 255.261719 C 177.316406 255.480469 175.851562 255.660156 174.378906 255.804688 C 172.90625 255.949219 171.433594 256.058594 169.953125 256.132812 C 168.476562 256.203125 167 256.242188 165.519531 256.242188 C 164.042969 256.242188 162.5625 256.203125 161.085938 256.132812 C 159.609375 256.058594 158.132812 255.949219 156.660156 255.804688 C 155.191406 255.660156 153.722656 255.480469 152.257812 255.261719 C 150.796875 255.046875 149.339844 254.792969 147.890625 254.503906 C 146.4375 254.214844 144.996094 253.890625 143.5625 253.53125 C 142.125 253.171875 140.703125 252.777344 139.285156 252.351562 C 137.871094 251.921875 136.464844 251.457031 135.074219 250.957031 C 133.679688 250.460938 132.300781 249.929688 130.933594 249.363281 C 129.570312 248.796875 128.21875 248.195312 126.878906 247.5625 C 125.542969 246.933594 124.222656 246.265625 122.917969 245.570312 C 121.613281 244.871094 120.328125 244.144531 119.058594 243.382812 C 117.789062 242.625 116.539062 241.832031 115.3125 241.011719 C 114.082031 240.1875 112.871094 239.335938 111.683594 238.457031 C 110.496094 237.574219 109.332031 236.664062 108.1875 235.726562 C 107.042969 234.789062 105.925781 233.824219 104.828125 232.828125 C 103.730469 231.835938 102.660156 230.816406 101.617188 229.769531 C 100.570312 228.726562 99.550781 227.65625 98.558594 226.558594 C 97.5625 225.460938 96.597656 224.34375 95.660156 223.199219 C 94.722656 222.054688 93.8125 220.890625 92.929688 219.703125 C 92.050781 218.515625 91.199219 217.304688 90.375 216.074219 C 89.554688 214.847656 88.761719 213.597656 88.003906 212.328125 C 87.242188 211.058594 86.515625 209.773438 85.816406 208.46875 C 85.121094 207.164062 84.453125 205.84375 83.824219 204.507812 C 83.191406 203.167969 82.589844 201.816406 82.023438 200.453125 C 81.457031 199.085938 80.925781 197.707031 80.429688 196.3125 C 79.929688 194.921875 79.464844 193.515625 79.035156 192.101562 C 78.609375 190.683594 78.214844 189.261719 77.855469 187.824219 C 77.496094 186.390625 77.171875 184.949219 76.882812 183.496094 C 76.59375 182.046875 76.339844 180.589844 76.125 179.128906 C 75.90625 177.664062 75.726562 176.195312 75.582031 174.726562 C 75.433594 173.253906 75.328125 171.777344 75.253906 170.300781 C 75.179688 168.824219 75.144531 167.34375 75.144531 165.867188 C 75.144531 164.386719 75.179688 162.910156 75.253906 161.433594 C 75.328125 159.953125 75.433594 158.480469 75.582031 157.007812 C 75.726562 155.535156 75.90625 154.070312 76.125 152.605469 C 76.339844 151.140625 76.59375 149.6875 76.882812 148.234375 C 77.171875 146.785156 77.496094 145.339844 77.855469 143.90625 C 78.214844 142.472656 78.609375 141.046875 79.035156 139.632812 C 79.464844 138.214844 79.929688 136.8125 80.429688 135.417969 C 80.925781 134.027344 81.457031 132.648438 82.023438 131.28125 C 82.589844 129.914062 83.191406 128.5625 83.824219 127.226562 C 84.453125 125.890625 85.121094 124.566406 85.816406 123.265625 C 86.515625 121.960938 87.242188 120.671875 88.003906 119.40625 C 88.761719 118.136719 89.554688 116.886719 90.375 115.65625 C 91.199219 114.425781 92.050781 113.21875 92.929688 112.03125 C 93.8125 110.84375 94.722656 109.675781 95.660156 108.53125 C 96.597656 107.390625 97.5625 106.269531 98.558594 105.175781 C 99.550781 104.078125 100.570312 103.007812 101.617188 101.960938 C 102.660156 100.914062 103.730469 99.894531 104.828125 98.902344 C 105.925781 97.910156 107.042969 96.945312 108.1875 96.003906 C 109.332031 95.066406 110.496094 94.15625 111.683594 93.277344 C 112.871094 92.394531 114.082031 91.542969 115.3125 90.722656 C 116.539062 89.902344 117.789062 89.109375 119.058594 88.347656 C 120.328125 87.589844 121.613281 86.859375 122.917969 86.164062 C 124.222656 85.464844 125.542969 84.800781 126.878906 84.167969 C 128.21875 83.535156 129.570312 82.9375 130.933594 82.371094 C 132.300781 81.804688 133.679688 81.273438 135.074219 80.773438 C 136.464844 80.277344 137.871094 79.8125 139.285156 79.382812 C 140.703125 78.953125 142.125 78.558594 143.5625 78.199219 C 144.996094 77.839844 146.4375 77.515625 147.890625 77.226562 C 149.339844 76.9375 150.796875 76.6875 152.257812 76.46875 C 153.722656 76.253906 155.191406 76.070312 156.660156 75.925781 C 158.132812 75.78125 159.609375 75.671875 161.085938 75.601562 C 162.5625 75.527344 164.042969 75.492188 165.519531 75.492188 L 165.519531 98.988281 C 164.425781 98.988281 163.332031 99.015625 162.238281 99.070312 C 161.144531 99.125 160.054688 99.203125 158.964844 99.3125 C 157.875 99.417969 156.789062 99.550781 155.707031 99.710938 C 154.625 99.875 153.546875 100.058594 152.472656 100.273438 C 151.398438 100.488281 150.332031 100.726562 149.269531 100.992188 C 148.207031 101.257812 147.152344 101.550781 146.105469 101.867188 C 145.058594 102.1875 144.019531 102.53125 142.988281 102.898438 C 141.960938 103.265625 140.9375 103.660156 139.925781 104.078125 C 138.917969 104.5 137.914062 104.941406 136.925781 105.410156 C 135.9375 105.878906 134.960938 106.371094 133.996094 106.886719 C 133.027344 107.402344 132.078125 107.941406 131.136719 108.503906 C 130.199219 109.066406 129.273438 109.652344 128.363281 110.257812 C 127.457031 110.867188 126.558594 111.496094 125.679688 112.148438 C 124.800781 112.800781 123.941406 113.476562 123.09375 114.167969 C 122.246094 114.863281 121.417969 115.578125 120.609375 116.3125 C 119.796875 117.046875 119.003906 117.804688 118.230469 118.578125 C 117.457031 119.351562 116.703125 120.144531 115.96875 120.953125 C 115.230469 121.765625 114.519531 122.59375 113.824219 123.441406 C 113.128906 124.285156 112.457031 125.148438 111.804688 126.027344 C 111.152344 126.90625 110.523438 127.800781 109.914062 128.710938 C 109.304688 129.621094 108.71875 130.546875 108.15625 131.484375 C 107.59375 132.421875 107.054688 133.375 106.539062 134.339844 C 106.023438 135.304688 105.53125 136.28125 105.0625 137.273438 C 104.597656 138.261719 104.152344 139.261719 103.734375 140.273438 C 103.316406 141.285156 102.921875 142.304688 102.550781 143.335938 C 102.183594 144.367188 101.839844 145.40625 101.523438 146.453125 C 101.203125 147.5 100.914062 148.554688 100.648438 149.617188 C 100.382812 150.679688 100.140625 151.746094 99.929688 152.820312 C 99.714844 153.894531 99.527344 154.972656 99.367188 156.054688 C 99.207031 157.136719 99.070312 158.222656 98.964844 159.3125 C 98.859375 160.402344 98.777344 161.492188 98.722656 162.585938 C 98.667969 163.679688 98.644531 164.773438 98.644531 165.867188 C 98.644531 166.960938 98.667969 168.054688 98.722656 169.148438 C 98.777344 170.242188 98.859375 171.332031 98.964844 172.421875 C 99.070312 173.511719 99.207031 174.597656 99.367188 175.679688 C 99.527344 176.761719 99.714844 177.839844 99.929688 178.914062 C 100.140625 179.988281 100.382812 181.054688 100.648438 182.117188 C 100.914062 183.179688 101.203125 184.234375 101.523438 185.28125 C 101.839844 186.328125 102.183594 187.367188 102.550781 188.398438 C 102.921875 189.425781 103.316406 190.449219 103.734375 191.460938 C 104.152344 192.46875 104.597656 193.472656 105.0625 194.460938 C 105.53125 195.449219 106.023438 196.425781 106.539062 197.390625 C 107.054688 198.359375 107.59375 199.308594 108.15625 200.25 C 108.71875 201.1875 109.304688 202.113281 109.914062 203.019531 C 110.523438 203.929688 111.152344 204.824219 111.804688 205.707031 C 112.457031 206.585938 113.128906 207.445312 113.824219 208.292969 C 114.519531 209.140625 115.230469 209.96875 115.96875 210.777344 C 116.703125 211.589844 117.457031 212.382812 118.230469 213.15625 C 119.003906 213.929688 119.796875 214.683594 120.609375 215.417969 C 121.417969 216.15625 122.246094 216.867188 123.09375 217.5625 C 123.941406 218.257812 124.800781 218.929688 125.679688 219.582031 C 126.558594 220.234375 127.457031 220.863281 128.363281 221.472656 C 129.273438 222.082031 130.199219 222.667969 131.136719 223.230469 C 132.078125 223.792969 133.027344 224.332031 133.996094 224.847656 C 134.960938 225.363281 135.9375 225.855469 136.925781 226.324219 C 137.914062 226.789062 138.917969 227.234375 139.925781 227.652344 C 140.9375 228.070312 141.960938 228.464844 142.988281 228.835938 C 144.019531 229.203125 145.058594 229.546875 146.105469 229.863281 C 147.152344 230.183594 148.207031 230.472656 149.269531 230.738281 C 150.332031 231.003906 151.398438 231.246094 152.472656 231.457031 C 153.546875 231.671875 154.625 231.859375 155.707031 232.019531 C 156.789062 232.179688 157.875 232.316406 158.964844 232.421875 C 160.054688 232.527344 161.144531 232.609375 162.238281 232.664062 C 163.332031 232.71875 164.425781 232.742188 165.519531 232.742188 C 166.613281 232.742188 167.707031 232.71875 168.800781 232.664062 C 169.894531 232.609375 170.984375 232.527344 172.074219 232.421875 C 173.164062 232.316406 174.25 232.179688 175.332031 232.019531 C 176.414062 231.859375 177.492188 231.671875 178.566406 231.457031 C 179.640625 231.246094 180.707031 231.003906 181.769531 230.738281 C 182.832031 230.472656 183.886719 230.183594 184.933594 229.863281 C 185.980469 229.546875 187.019531 229.203125 188.050781 228.835938 C 189.082031 228.464844 190.101562 228.070312 191.113281 227.652344 C 192.125 227.234375 193.125 226.789062 194.113281 226.324219 C 195.101562 225.855469 196.082031 225.363281 197.046875 224.847656 C 198.011719 224.332031 198.964844 223.792969 199.902344 223.230469 C 200.839844 222.667969 201.765625 222.082031 202.675781 221.472656 C 203.585938 220.863281 204.480469 220.234375 205.359375 219.582031 C 206.238281 218.929688 207.101562 218.257812 207.945312 217.5625 C 208.792969 216.867188 209.621094 216.15625 210.433594 215.417969 C 211.242188 214.683594 212.035156 213.929688 212.808594 213.15625 C 213.582031 212.382812 214.339844 211.589844 215.074219 210.777344 C 215.808594 209.96875 216.523438 209.140625 217.21875 208.292969 C 217.910156 207.445312 218.585938 206.585938 219.238281 205.707031 C 219.890625 204.824219 220.519531 203.929688 221.125 203.019531 C 221.734375 202.113281 222.320312 201.1875 222.882812 200.25 C 223.445312 199.308594 223.984375 198.359375 224.5 197.390625 C 225.015625 196.425781 225.507812 195.449219 225.976562 194.460938 C 226.445312 193.472656 226.886719 192.46875 227.308594 191.460938 C 227.726562 190.449219 228.121094 189.425781 228.488281 188.398438 C 228.855469 187.367188 229.199219 186.328125 229.519531 185.28125 C 229.835938 184.234375 230.128906 183.179688 230.394531 182.117188 C 230.660156 181.054688 230.898438 179.988281 231.113281 178.914062 C 231.328125 177.839844 231.511719 176.761719 231.675781 175.679688 C 231.835938 174.597656 231.96875 173.511719 232.074219 172.421875 C 232.183594 171.332031 232.261719 170.242188 232.316406 169.148438 C 232.371094 168.054688 232.398438 166.960938 232.398438 165.867188 C 232.398438 164.773438 232.371094 163.679688 232.316406 162.585938 C 232.261719 161.492188 232.183594 160.402344 232.074219 159.3125 C 231.96875 158.222656 231.835938 157.136719 231.675781 156.054688 C 231.511719 154.972656 231.328125 153.894531 231.113281 152.820312 C 230.898438 151.746094 230.660156 150.679688 230.394531 149.617188 C 230.128906 148.554688 229.835938 147.5 229.519531 146.453125 C 229.199219 145.40625 228.855469 144.367188 228.488281 143.335938 C 228.121094 142.304688 227.726562 141.285156 227.308594 140.273438 C 226.886719 139.261719 226.445312 138.261719 225.976562 137.273438 C 225.507812 136.28125 225.015625 135.304688 224.5 134.339844 C 223.984375 133.375 223.445312 132.421875 222.882812 131.484375 C 222.320312 130.546875 221.734375 129.621094 221.125 128.710938 C 220.519531 127.800781 219.890625 126.90625 219.238281 126.027344 C 218.585938 125.148438 217.910156 124.285156 217.21875 123.441406 C 216.523438 122.59375 215.808594 121.765625 215.074219 120.953125 C 214.339844 120.144531 213.582031 119.351562 212.808594 118.578125 C 212.035156 117.804688 211.242188 117.046875 210.433594 116.3125 C 209.621094 115.578125 208.792969 114.863281 207.945312 114.167969 C 207.101562 113.476562 206.238281 112.800781 205.359375 112.148438 C 204.480469 111.496094 203.585938 110.867188 202.675781 110.257812 C 201.765625 109.652344 200.839844 109.066406 199.902344 108.503906 C 198.964844 107.941406 198.011719 107.402344 197.046875 106.886719 C 196.082031 106.371094 195.101562 105.878906 194.113281 105.410156 C 193.125 104.941406 192.125 104.5 191.113281 104.078125 C 190.101562 103.660156 189.082031 103.265625 188.050781 102.898438 C 187.019531 102.53125 185.980469 102.1875 184.933594 101.867188 C 183.886719 101.550781 182.832031 101.257812 181.769531 100.992188 C 180.707031 100.726562 179.640625 100.488281 178.566406 100.273438 C 177.492188 100.058594 176.414062 99.875 175.332031 99.710938 C 174.25 99.550781 173.164062 99.417969 172.074219 99.3125 C 170.984375 99.203125 169.894531 99.125 168.800781 99.070312 C 167.707031 99.015625 166.613281 98.988281 165.519531 98.988281 Z M 165.519531 75.492188 " fill-opacity="1" fill-rule="nonzero"/></g></svg>