<svg xmlns="http://www.w3.org/2000/svg" xmlns:xlink="http://www.w3.org/1999/xlink" width="855" zoomAndPan="magnify" viewBox="0 0 641.25 192.749996" height="257" preserveAspectRatio="xMidYMid meet" version="1.0"><defs><g/><clipPath id="71b734c240"><path d="M 75.425781 86.128906 L 479.902344 86.128906 L 479.902344 106.351562 L 75.425781 106.351562 Z M 75.425781 86.128906 " clip-rule="nonzero"/></clipPath><clipPath id="6bf3e3d454"><path d="M 75.425781 86.128906 L 319 86.128906 L 319 106.351562 L 75.425781 106.351562 Z M 75.425781 86.128906 " clip-rule="nonzero"/></clipPath></defs><g fill="#ffffff" fill-opacity="1"><g transform="translate(500.124561, 108.225974)"><g><path d="M 14.453125 -24.859375 L 14.453125 -22.1875 L 13.875 -22.1875 C 11.414062 -22.144531 9.457031 -21.414062 8 -20 C 6.539062 -18.59375 5.703125 -16.609375 5.484375 -14.046875 C 6.785156 -15.546875 8.570312 -16.296875 10.84375 -16.296875 C 13 -16.296875 14.722656 -15.53125 16.015625 -14 C 17.304688 -12.476562 17.953125 -10.515625 17.953125 -8.109375 C 17.953125 -5.546875 17.253906 -3.492188 15.859375 -1.953125 C 14.460938 -0.421875 12.59375 0.34375 10.25 0.34375 C 7.875 0.34375 5.945312 -0.566406 4.46875 -2.390625 C 2.988281 -4.222656 2.25 -6.578125 2.25 -9.453125 L 2.25 -10.671875 C 2.25 -15.242188 3.222656 -18.738281 5.171875 -21.15625 C 7.128906 -23.570312 10.035156 -24.804688 13.890625 -24.859375 Z M 10.3125 -13.671875 C 9.226562 -13.671875 8.226562 -13.34375 7.3125 -12.6875 C 6.40625 -12.039062 5.773438 -11.226562 5.421875 -10.25 L 5.421875 -9.09375 C 5.421875 -7.050781 5.878906 -5.398438 6.796875 -4.140625 C 7.722656 -2.890625 8.875 -2.265625 10.25 -2.265625 C 11.675781 -2.265625 12.796875 -2.785156 13.609375 -3.828125 C 14.421875 -4.878906 14.828125 -6.253906 14.828125 -7.953125 C 14.828125 -9.660156 14.414062 -11.039062 13.59375 -12.09375 C 12.769531 -13.144531 11.675781 -13.671875 10.3125 -13.671875 Z M 10.3125 -13.671875 "/></g></g><g transform="translate(519.752425, 108.225974)"><g><path d="M 17.640625 -10.59375 C 17.640625 -6.894531 17.007812 -4.144531 15.75 -2.34375 C 14.488281 -0.550781 12.515625 0.34375 9.828125 0.34375 C 7.179688 0.34375 5.21875 -0.535156 3.9375 -2.296875 C 2.664062 -4.054688 2.007812 -6.679688 1.96875 -10.171875 L 1.96875 -14.390625 C 1.96875 -18.035156 2.597656 -20.742188 3.859375 -22.515625 C 5.117188 -24.296875 7.097656 -25.1875 9.796875 -25.1875 C 12.472656 -25.1875 14.441406 -24.328125 15.703125 -22.609375 C 16.960938 -20.898438 17.609375 -18.257812 17.640625 -14.6875 Z M 14.484375 -14.921875 C 14.484375 -17.585938 14.109375 -19.53125 13.359375 -20.75 C 12.609375 -21.976562 11.421875 -22.59375 9.796875 -22.59375 C 8.179688 -22.59375 7.003906 -21.984375 6.265625 -20.765625 C 5.523438 -19.546875 5.144531 -17.675781 5.125 -15.15625 L 5.125 -10.109375 C 5.125 -7.421875 5.507812 -5.4375 6.28125 -4.15625 C 7.0625 -2.875 8.242188 -2.234375 9.828125 -2.234375 C 11.390625 -2.234375 12.546875 -2.835938 13.296875 -4.046875 C 14.054688 -5.253906 14.453125 -7.15625 14.484375 -9.75 Z M 14.484375 -14.921875 "/></g></g><g transform="translate(539.380288, 108.225974)"><g><path d="M 1.796875 -20.078125 C 1.796875 -21.566406 2.269531 -22.789062 3.21875 -23.75 C 4.164062 -24.71875 5.382812 -25.203125 6.875 -25.203125 C 8.382812 -25.203125 9.609375 -24.71875 10.546875 -23.75 C 11.492188 -22.78125 11.96875 -21.519531 11.96875 -19.96875 L 11.96875 -18.75 C 11.96875 -17.25 11.488281 -16.023438 10.53125 -15.078125 C 9.582031 -14.128906 8.375 -13.65625 6.90625 -13.65625 C 5.425781 -13.65625 4.203125 -14.128906 3.234375 -15.078125 C 2.273438 -16.023438 1.796875 -17.289062 1.796875 -18.875 Z M 4.140625 -18.75 C 4.140625 -17.863281 4.390625 -17.132812 4.890625 -16.5625 C 5.398438 -15.988281 6.070312 -15.703125 6.90625 -15.703125 C 7.71875 -15.703125 8.367188 -15.976562 8.859375 -16.53125 C 9.359375 -17.09375 9.609375 -17.859375 9.609375 -18.828125 L 9.609375 -20.078125 C 9.609375 -20.960938 9.363281 -21.691406 8.875 -22.265625 C 8.382812 -22.847656 7.71875 -23.140625 6.875 -23.140625 C 6.03125 -23.140625 5.363281 -22.847656 4.875 -22.265625 C 4.382812 -21.691406 4.140625 -20.9375 4.140625 -20 Z M 13.890625 -6.09375 C 13.890625 -7.582031 14.363281 -8.804688 15.3125 -9.765625 C 16.269531 -10.734375 17.492188 -11.21875 18.984375 -11.21875 C 20.472656 -11.21875 21.691406 -10.738281 22.640625 -9.78125 C 23.597656 -8.820312 24.078125 -7.550781 24.078125 -5.96875 L 24.078125 -4.765625 C 24.078125 -3.273438 23.601562 -2.046875 22.65625 -1.078125 C 21.707031 -0.117188 20.492188 0.359375 19.015625 0.359375 C 17.535156 0.359375 16.3125 -0.113281 15.34375 -1.0625 C 14.375 -2.007812 13.890625 -3.273438 13.890625 -4.859375 Z M 16.25 -4.765625 C 16.25 -3.859375 16.5 -3.117188 17 -2.546875 C 17.5 -1.972656 18.171875 -1.6875 19.015625 -1.6875 C 19.828125 -1.6875 20.476562 -1.96875 20.96875 -2.53125 C 21.457031 -3.09375 21.703125 -3.859375 21.703125 -4.828125 L 21.703125 -6.09375 C 21.703125 -6.988281 21.453125 -7.71875 20.953125 -8.28125 C 20.460938 -8.851562 19.804688 -9.140625 18.984375 -9.140625 C 18.171875 -9.140625 17.507812 -8.859375 17 -8.296875 C 16.5 -7.734375 16.25 -6.976562 16.25 -6.03125 Z M 7.625 -1.875 L 5.84375 -3 L 17.96875 -22.421875 L 19.765625 -21.296875 Z M 7.625 -1.875 "/></g></g></g><g clip-path="url(#71b734c240)"><path fill="#ffffff" d="M 85.539062 86.128906 L 469.789062 86.128906 C 470.453125 86.128906 471.109375 86.195312 471.761719 86.324219 C 472.414062 86.453125 473.046875 86.644531 473.660156 86.898438 C 474.273438 87.152344 474.855469 87.464844 475.40625 87.832031 C 475.957031 88.203125 476.46875 88.621094 476.9375 89.089844 C 477.410156 89.5625 477.828125 90.070312 478.195312 90.625 C 478.566406 91.175781 478.875 91.757812 479.132812 92.371094 C 479.386719 92.984375 479.578125 93.617188 479.707031 94.269531 C 479.835938 94.921875 479.902344 95.578125 479.902344 96.242188 C 479.902344 96.90625 479.835938 97.5625 479.707031 98.214844 C 479.578125 98.867188 479.386719 99.496094 479.132812 100.109375 C 478.875 100.722656 478.566406 101.308594 478.195312 101.859375 C 477.828125 102.410156 477.410156 102.921875 476.9375 103.390625 C 476.46875 103.859375 475.957031 104.28125 475.40625 104.648438 C 474.855469 105.019531 474.273438 105.328125 473.660156 105.582031 C 473.046875 105.835938 472.414062 106.03125 471.761719 106.160156 C 471.109375 106.289062 470.453125 106.351562 469.789062 106.351562 L 85.539062 106.351562 C 84.875 106.351562 84.214844 106.289062 83.566406 106.160156 C 82.914062 106.03125 82.28125 105.835938 81.667969 105.582031 C 81.054688 105.328125 80.472656 105.019531 79.917969 104.648438 C 79.367188 104.28125 78.855469 103.859375 78.386719 103.390625 C 77.917969 102.921875 77.5 102.410156 77.128906 101.859375 C 76.761719 101.308594 76.449219 100.722656 76.195312 100.109375 C 75.941406 99.496094 75.75 98.867188 75.621094 98.214844 C 75.488281 97.5625 75.425781 96.90625 75.425781 96.242188 C 75.425781 95.578125 75.488281 94.921875 75.621094 94.269531 C 75.75 93.617188 75.941406 92.984375 76.195312 92.371094 C 76.449219 91.757812 76.761719 91.175781 77.128906 90.625 C 77.5 90.070312 77.917969 89.5625 78.386719 89.089844 C 78.855469 88.621094 79.367188 88.203125 79.917969 87.832031 C 80.472656 87.464844 81.054688 87.152344 81.667969 86.898438 C 82.28125 86.644531 82.914062 86.453125 83.566406 86.324219 C 84.214844 86.195312 84.875 86.128906 85.539062 86.128906 Z M 85.539062 86.128906 " fill-opacity="1" fill-rule="nonzero"/></g><g clip-path="url(#6bf3e3d454)"><path fill="#b2ceaf" d="M 85.539062 86.128906 L 308 86.128906 C 308.664062 86.128906 309.320312 86.195312 309.972656 86.324219 C 310.621094 86.453125 311.253906 86.644531 311.867188 86.898438 C 312.480469 87.152344 313.066406 87.464844 313.617188 87.832031 C 314.167969 88.203125 314.679688 88.621094 315.148438 89.089844 C 315.617188 89.5625 316.039062 90.070312 316.40625 90.625 C 316.773438 91.175781 317.085938 91.757812 317.339844 92.371094 C 317.59375 92.984375 317.785156 93.617188 317.917969 94.269531 C 318.046875 94.921875 318.109375 95.578125 318.109375 96.242188 C 318.109375 96.90625 318.046875 97.5625 317.917969 98.214844 C 317.785156 98.867188 317.59375 99.496094 317.339844 100.109375 C 317.085938 100.722656 316.773438 101.308594 316.40625 101.859375 C 316.039062 102.410156 315.617188 102.921875 315.148438 103.390625 C 314.679688 103.859375 314.167969 104.28125 313.617188 104.648438 C 313.066406 105.019531 312.480469 105.328125 311.867188 105.582031 C 311.253906 105.835938 310.621094 106.03125 309.972656 106.160156 C 309.320312 106.289062 308.664062 106.351562 308 106.351562 L 85.539062 106.351562 C 84.875 106.351562 84.214844 106.289062 83.566406 106.160156 C 82.914062 106.03125 82.28125 105.835938 81.667969 105.582031 C 81.054688 105.328125 80.472656 105.019531 79.917969 104.648438 C 79.367188 104.28125 78.855469 103.859375 78.386719 103.390625 C 77.917969 102.921875 77.5 102.410156 77.128906 101.859375 C 76.761719 101.308594 76.449219 100.722656 76.195312 100.109375 C 75.941406 99.496094 75.75 98.867188 75.621094 98.214844 C 75.488281 97.5625 75.425781 96.90625 75.425781 96.242188 C 75.425781 95.578125 75.488281 94.921875 75.621094 94.269531 C 75.75 93.617188 75.941406 92.984375 76.195312 92.371094 C 76.449219 91.757812 76.761719 91.175781 77.128906 90.625 C 77.5 90.070312 77.917969 89.5625 78.386719 89.089844 C 78.855469 88.621094 79.367188 88.203125 79.917969 87.832031 C 80.472656 87.464844 81.054688 87.152344 81.667969 86.898438 C 82.28125 86.644531 82.914062 86.453125 83.566406 86.324219 C 84.214844 86.195312 84.875 86.128906 85.539062 86.128906 Z M 85.539062 86.128906 " fill-opacity="1" fill-rule="nonzero"/></g></svg>