<svg xmlns="http://www.w3.org/2000/svg" xmlns:xlink="http://www.w3.org/1999/xlink" width="442" zoomAndPan="magnify" viewBox="0 0 331.5 331.500004" height="442" preserveAspectRatio="xMidYMid meet" version="1.0"><defs><g/><clipPath id="bbb2a6c9da"><path d="M 75.144531 75.492188 L 255.894531 75.492188 L 255.894531 256.242188 L 75.144531 256.242188 Z M 75.144531 75.492188 " clip-rule="nonzero"/></clipPath><clipPath id="bf3cf16f4f"><path d="M 76 76 L 255.894531 76 L 255.894531 256.242188 L 76 256.242188 Z M 76 76 " clip-rule="nonzero"/></clipPath></defs><g fill="#ffffff" fill-opacity="1"><g transform="translate(133.052237, 177.804771)"><g><path d="M 18.125 -23.109375 L 7.828125 0 L 4.515625 0 L 14.78125 -22.28125 L 1.3125 -22.28125 L 1.3125 -24.890625 L 18.125 -24.890625 Z M 18.125 -23.109375 "/></g></g></g><g fill="#ffffff" fill-opacity="1"><g transform="translate(152.703256, 177.804771)"><g><path d="M 3.515625 -12.46875 L 4.78125 -24.890625 L 17.53125 -24.890625 L 17.53125 -21.953125 L 7.46875 -21.953125 L 6.71875 -15.171875 C 7.9375 -15.890625 9.320312 -16.25 10.875 -16.25 C 13.132812 -16.25 14.929688 -15.5 16.265625 -14 C 17.597656 -12.507812 18.265625 -10.488281 18.265625 -7.9375 C 18.265625 -5.363281 17.570312 -3.335938 16.1875 -1.859375 C 14.800781 -0.390625 12.867188 0.34375 10.390625 0.34375 C 8.191406 0.34375 6.394531 -0.265625 5 -1.484375 C 3.613281 -2.703125 2.820312 -4.390625 2.625 -6.546875 L 5.625 -6.546875 C 5.8125 -5.117188 6.316406 -4.039062 7.140625 -3.3125 C 7.960938 -2.59375 9.046875 -2.234375 10.390625 -2.234375 C 11.859375 -2.234375 13.007812 -2.734375 13.84375 -3.734375 C 14.6875 -4.742188 15.109375 -6.128906 15.109375 -7.890625 C 15.109375 -9.554688 14.65625 -10.894531 13.75 -11.90625 C 12.84375 -12.914062 11.640625 -13.421875 10.140625 -13.421875 C 8.753906 -13.421875 7.671875 -13.117188 6.890625 -12.515625 L 6.046875 -11.828125 Z M 3.515625 -12.46875 "/></g></g></g><g fill="#ffffff" fill-opacity="1"><g transform="translate(172.354275, 177.804771)"><g><path d="M 1.796875 -20.09375 C 1.796875 -21.59375 2.269531 -22.820312 3.21875 -23.78125 C 4.175781 -24.75 5.398438 -25.234375 6.890625 -25.234375 C 8.398438 -25.234375 9.625 -24.742188 10.5625 -23.765625 C 11.507812 -22.796875 11.984375 -21.539062 11.984375 -20 L 11.984375 -18.78125 C 11.984375 -17.28125 11.503906 -16.050781 10.546875 -15.09375 C 9.597656 -14.144531 8.390625 -13.671875 6.921875 -13.671875 C 5.441406 -13.671875 4.21875 -14.144531 3.25 -15.09375 C 2.28125 -16.050781 1.796875 -17.320312 1.796875 -18.90625 Z M 4.15625 -18.78125 C 4.15625 -17.894531 4.40625 -17.160156 4.90625 -16.578125 C 5.40625 -16.003906 6.078125 -15.71875 6.921875 -15.71875 C 7.734375 -15.71875 8.382812 -15.992188 8.875 -16.546875 C 9.375 -17.109375 9.625 -17.875 9.625 -18.84375 L 9.625 -20.09375 C 9.625 -20.988281 9.378906 -21.722656 8.890625 -22.296875 C 8.398438 -22.878906 7.734375 -23.171875 6.890625 -23.171875 C 6.046875 -23.171875 5.378906 -22.878906 4.890625 -22.296875 C 4.398438 -21.722656 4.15625 -20.96875 4.15625 -20.03125 Z M 13.90625 -6.09375 C 13.90625 -7.59375 14.378906 -8.820312 15.328125 -9.78125 C 16.285156 -10.75 17.507812 -11.234375 19 -11.234375 C 20.5 -11.234375 21.722656 -10.753906 22.671875 -9.796875 C 23.628906 -8.835938 24.109375 -7.566406 24.109375 -5.984375 L 24.109375 -4.765625 C 24.109375 -3.273438 23.632812 -2.046875 22.6875 -1.078125 C 21.738281 -0.117188 20.519531 0.359375 19.03125 0.359375 C 17.550781 0.359375 16.328125 -0.113281 15.359375 -1.0625 C 14.390625 -2.019531 13.90625 -3.289062 13.90625 -4.875 Z M 16.265625 -4.765625 C 16.265625 -3.867188 16.515625 -3.128906 17.015625 -2.546875 C 17.523438 -1.972656 18.195312 -1.6875 19.03125 -1.6875 C 19.851562 -1.6875 20.507812 -1.96875 21 -2.53125 C 21.488281 -3.101562 21.734375 -3.875 21.734375 -4.84375 L 21.734375 -6.09375 C 21.734375 -7 21.484375 -7.734375 20.984375 -8.296875 C 20.492188 -8.867188 19.832031 -9.15625 19 -9.15625 C 18.195312 -9.15625 17.539062 -8.875 17.03125 -8.3125 C 16.519531 -7.75 16.265625 -6.988281 16.265625 -6.03125 Z M 7.640625 -1.875 L 5.84375 -3.015625 L 18 -22.453125 L 19.796875 -21.328125 Z M 7.640625 -1.875 "/></g></g></g><g clip-path="url(#bbb2a6c9da)"><path fill="#ffffff" d="M 165.519531 75.492188 C 167 75.492188 168.476562 75.527344 169.953125 75.601562 C 171.433594 75.671875 172.90625 75.78125 174.378906 75.925781 C 175.851562 76.070312 177.316406 76.253906 178.78125 76.46875 C 180.242188 76.6875 181.699219 76.9375 183.152344 77.226562 C 184.601562 77.515625 186.042969 77.839844 187.480469 78.199219 C 188.914062 78.558594 190.339844 78.953125 191.753906 79.382812 C 193.171875 79.8125 194.574219 80.277344 195.964844 80.773438 C 197.359375 81.273438 198.738281 81.804688 200.105469 82.371094 C 201.472656 82.9375 202.824219 83.535156 204.160156 84.167969 C 205.496094 84.800781 206.816406 85.464844 208.121094 86.164062 C 209.425781 86.859375 210.714844 87.589844 211.980469 88.347656 C 213.25 89.109375 214.5 89.902344 215.730469 90.722656 C 216.960938 91.542969 218.167969 92.394531 219.355469 93.277344 C 220.542969 94.15625 221.710938 95.066406 222.855469 96.003906 C 223.996094 96.945312 225.117188 97.910156 226.210938 98.902344 C 227.308594 99.894531 228.378906 100.914062 229.425781 101.960938 C 230.472656 103.007812 231.492188 104.078125 232.484375 105.175781 C 233.476562 106.269531 234.441406 107.390625 235.382812 108.53125 C 236.320312 109.675781 237.230469 110.84375 238.109375 112.03125 C 238.992188 113.21875 239.84375 114.425781 240.664062 115.65625 C 241.484375 116.886719 242.277344 118.136719 243.039062 119.40625 C 243.796875 120.671875 244.527344 121.960938 245.222656 123.265625 C 245.921875 124.566406 246.585938 125.890625 247.21875 127.226562 C 247.851562 128.5625 248.449219 129.914062 249.015625 131.28125 C 249.582031 132.648438 250.113281 134.027344 250.613281 135.417969 C 251.109375 136.8125 251.574219 138.214844 252.003906 139.632812 C 252.433594 141.046875 252.828125 142.472656 253.1875 143.90625 C 253.546875 145.339844 253.871094 146.785156 254.160156 148.234375 C 254.449219 149.6875 254.699219 151.140625 254.917969 152.605469 C 255.132812 154.070312 255.316406 155.535156 255.460938 157.007812 C 255.605469 158.480469 255.714844 159.953125 255.785156 161.433594 C 255.859375 162.910156 255.894531 164.386719 255.894531 165.867188 C 255.894531 167.34375 255.859375 168.824219 255.785156 170.300781 C 255.714844 171.777344 255.605469 173.253906 255.460938 174.726562 C 255.316406 176.195312 255.132812 177.664062 254.917969 179.128906 C 254.699219 180.589844 254.449219 182.046875 254.160156 183.496094 C 253.871094 184.949219 253.546875 186.390625 253.1875 187.824219 C 252.828125 189.261719 252.433594 190.683594 252.003906 192.101562 C 251.574219 193.515625 251.109375 194.921875 250.613281 196.3125 C 250.113281 197.707031 249.582031 199.085938 249.015625 200.453125 C 248.449219 201.816406 247.851562 203.167969 247.21875 204.507812 C 246.585938 205.84375 245.921875 207.164062 245.222656 208.46875 C 244.527344 209.773438 243.796875 211.058594 243.039062 212.328125 C 242.277344 213.597656 241.484375 214.847656 240.664062 216.074219 C 239.84375 217.304688 238.992188 218.515625 238.109375 219.703125 C 237.230469 220.890625 236.320312 222.054688 235.382812 223.199219 C 234.441406 224.34375 233.476562 225.460938 232.484375 226.558594 C 231.492188 227.65625 230.472656 228.726562 229.425781 229.769531 C 228.378906 230.816406 227.308594 231.835938 226.210938 232.828125 C 225.117188 233.824219 223.996094 234.789062 222.855469 235.726562 C 221.710938 236.664062 220.542969 237.574219 219.355469 238.457031 C 218.167969 239.335938 216.960938 240.1875 215.730469 241.011719 C 214.5 241.832031 213.25 242.625 211.980469 243.382812 C 210.714844 244.144531 209.425781 244.871094 208.121094 245.570312 C 206.816406 246.265625 205.496094 246.933594 204.160156 247.5625 C 202.824219 248.195312 201.472656 248.796875 200.105469 249.363281 C 198.738281 249.929688 197.359375 250.460938 195.964844 250.957031 C 194.574219 251.457031 193.171875 251.921875 191.753906 252.351562 C 190.339844 252.777344 188.914062 253.171875 187.480469 253.53125 C 186.042969 253.890625 184.601562 254.214844 183.152344 254.503906 C 181.699219 254.792969 180.242188 255.046875 178.78125 255.261719 C 177.316406 255.480469 175.851562 255.660156 174.378906 255.804688 C 172.90625 255.949219 171.433594 256.058594 169.953125 256.132812 C 168.476562 256.203125 167 256.242188 165.519531 256.242188 C 164.042969 256.242188 162.5625 256.203125 161.085938 256.132812 C 159.609375 256.058594 158.132812 255.949219 156.660156 255.804688 C 155.191406 255.660156 153.722656 255.480469 152.257812 255.261719 C 150.796875 255.046875 149.339844 254.792969 147.890625 254.503906 C 146.4375 254.214844 144.996094 253.890625 143.5625 253.53125 C 142.125 253.171875 140.703125 252.777344 139.285156 252.351562 C 137.871094 251.921875 136.464844 251.457031 135.074219 250.957031 C 133.679688 250.460938 132.300781 249.929688 130.933594 249.363281 C 129.570312 248.796875 128.21875 248.195312 126.878906 247.5625 C 125.542969 246.933594 124.222656 246.265625 122.917969 245.570312 C 121.613281 244.871094 120.328125 244.144531 119.058594 243.382812 C 117.789062 242.625 116.539062 241.832031 115.3125 241.011719 C 114.082031 240.1875 112.871094 239.335938 111.683594 238.457031 C 110.496094 237.574219 109.332031 236.664062 108.1875 235.726562 C 107.042969 234.789062 105.925781 233.824219 104.828125 232.828125 C 103.730469 231.835938 102.660156 230.816406 101.617188 229.769531 C 100.570312 228.726562 99.550781 227.65625 98.558594 226.558594 C 97.5625 225.460938 96.597656 224.34375 95.660156 223.199219 C 94.722656 222.054688 93.8125 220.890625 92.929688 219.703125 C 92.050781 218.515625 91.199219 217.304688 90.375 216.074219 C 89.554688 214.847656 88.761719 213.597656 88.003906 212.328125 C 87.242188 211.058594 86.515625 209.773438 85.816406 208.46875 C 85.121094 207.164062 84.453125 205.84375 83.824219 204.507812 C 83.191406 203.167969 82.589844 201.816406 82.023438 200.453125 C 81.457031 199.085938 80.925781 197.707031 80.429688 196.3125 C 79.929688 194.921875 79.464844 193.515625 79.035156 192.101562 C 78.609375 190.683594 78.214844 189.261719 77.855469 187.824219 C 77.496094 186.390625 77.171875 184.949219 76.882812 183.496094 C 76.59375 182.046875 76.339844 180.589844 76.125 179.128906 C 75.90625 177.664062 75.726562 176.195312 75.582031 174.726562 C 75.433594 173.253906 75.328125 171.777344 75.253906 170.300781 C 75.179688 168.824219 75.144531 167.34375 75.144531 165.867188 C 75.144531 164.386719 75.179688 162.910156 75.253906 161.433594 C 75.328125 159.953125 75.433594 158.480469 75.582031 157.007812 C 75.726562 155.535156 75.90625 154.070312 76.125 152.605469 C 76.339844 151.140625 76.59375 149.6875 76.882812 148.234375 C 77.171875 146.785156 77.496094 145.339844 77.855469 143.90625 C 78.214844 142.472656 78.609375 141.046875 79.035156 139.632812 C 79.464844 138.214844 79.929688 136.8125 80.429688 135.417969 C 80.925781 134.027344 81.457031 132.648438 82.023438 131.28125 C 82.589844 129.914062 83.191406 128.5625 83.824219 127.226562 C 84.453125 125.890625 85.121094 124.566406 85.816406 123.265625 C 86.515625 121.960938 87.242188 120.671875 88.003906 119.40625 C 88.761719 118.136719 89.554688 116.886719 90.375 115.65625 C 91.199219 114.425781 92.050781 113.21875 92.929688 112.03125 C 93.8125 110.84375 94.722656 109.675781 95.660156 108.53125 C 96.597656 107.390625 97.5625 106.269531 98.558594 105.175781 C 99.550781 104.078125 100.570312 103.007812 101.617188 101.960938 C 102.660156 100.914062 103.730469 99.894531 104.828125 98.902344 C 105.925781 97.910156 107.042969 96.945312 108.1875 96.003906 C 109.332031 95.066406 110.496094 94.15625 111.683594 93.277344 C 112.871094 92.394531 114.082031 91.542969 115.3125 90.722656 C 116.539062 89.902344 117.789062 89.109375 119.058594 88.347656 C 120.328125 87.589844 121.613281 86.859375 122.917969 86.164062 C 124.222656 85.464844 125.542969 84.800781 126.878906 84.167969 C 128.21875 83.535156 129.570312 82.9375 130.933594 82.371094 C 132.300781 81.804688 133.679688 81.273438 135.074219 80.773438 C 136.464844 80.277344 137.871094 79.8125 139.285156 79.382812 C 140.703125 78.953125 142.125 78.558594 143.5625 78.199219 C 144.996094 77.839844 146.4375 77.515625 147.890625 77.226562 C 149.339844 76.9375 150.796875 76.6875 152.257812 76.46875 C 153.722656 76.253906 155.191406 76.070312 156.660156 75.925781 C 158.132812 75.78125 159.609375 75.671875 161.085938 75.601562 C 162.5625 75.527344 164.042969 75.492188 165.519531 75.492188 L 165.519531 98.988281 C 164.425781 98.988281 163.332031 99.015625 162.238281 99.070312 C 161.144531 99.125 160.054688 99.203125 158.964844 99.3125 C 157.875 99.417969 156.789062 99.550781 155.707031 99.710938 C 154.625 99.875 153.546875 100.058594 152.472656 100.273438 C 151.398438 100.488281 150.332031 100.726562 149.269531 100.992188 C 148.207031 101.257812 147.152344 101.550781 146.105469 101.867188 C 145.058594 102.1875 144.019531 102.53125 142.988281 102.898438 C 141.960938 103.265625 140.9375 103.660156 139.925781 104.078125 C 138.917969 104.5 137.914062 104.941406 136.925781 105.410156 C 135.9375 105.878906 134.960938 106.371094 133.996094 106.886719 C 133.027344 107.402344 132.078125 107.941406 131.136719 108.503906 C 130.199219 109.066406 129.273438 109.652344 128.363281 110.257812 C 127.457031 110.867188 126.558594 111.496094 125.679688 112.148438 C 124.800781 112.800781 123.941406 113.476562 123.09375 114.167969 C 122.246094 114.863281 121.417969 115.578125 120.609375 116.3125 C 119.796875 117.046875 119.003906 117.804688 118.230469 118.578125 C 117.457031 119.351562 116.703125 120.144531 115.96875 120.953125 C 115.230469 121.765625 114.519531 122.59375 113.824219 123.441406 C 113.128906 124.285156 112.457031 125.148438 111.804688 126.027344 C 111.152344 126.90625 110.523438 127.800781 109.914062 128.710938 C 109.304688 129.621094 108.71875 130.546875 108.15625 131.484375 C 107.59375 132.421875 107.054688 133.375 106.539062 134.339844 C 106.023438 135.304688 105.53125 136.28125 105.0625 137.273438 C 104.597656 138.261719 104.152344 139.261719 103.734375 140.273438 C 103.316406 141.285156 102.921875 142.304688 102.550781 143.335938 C 102.183594 144.367188 101.839844 145.40625 101.523438 146.453125 C 101.203125 147.5 100.914062 148.554688 100.648438 149.617188 C 100.382812 150.679688 100.140625 151.746094 99.929688 152.820312 C 99.714844 153.894531 99.527344 154.972656 99.367188 156.054688 C 99.207031 157.136719 99.070312 158.222656 98.964844 159.3125 C 98.859375 160.402344 98.777344 161.492188 98.722656 162.585938 C 98.667969 163.679688 98.644531 164.773438 98.644531 165.867188 C 98.644531 166.960938 98.667969 168.054688 98.722656 169.148438 C 98.777344 170.242188 98.859375 171.332031 98.964844 172.421875 C 99.070312 173.511719 99.207031 174.597656 99.367188 175.679688 C 99.527344 176.761719 99.714844 177.839844 99.929688 178.914062 C 100.140625 179.988281 100.382812 181.054688 100.648438 182.117188 C 100.914062 183.179688 101.203125 184.234375 101.523438 185.28125 C 101.839844 186.328125 102.183594 187.367188 102.550781 188.398438 C 102.921875 189.425781 103.316406 190.449219 103.734375 191.460938 C 104.152344 192.46875 104.597656 193.472656 105.0625 194.460938 C 105.53125 195.449219 106.023438 196.425781 106.539062 197.390625 C 107.054688 198.359375 107.59375 199.308594 108.15625 200.25 C 108.71875 201.1875 109.304688 202.113281 109.914062 203.019531 C 110.523438 203.929688 111.152344 204.824219 111.804688 205.707031 C 112.457031 206.585938 113.128906 207.445312 113.824219 208.292969 C 114.519531 209.140625 115.230469 209.96875 115.96875 210.777344 C 116.703125 211.589844 117.457031 212.382812 118.230469 213.15625 C 119.003906 213.929688 119.796875 214.683594 120.609375 215.417969 C 121.417969 216.15625 122.246094 216.867188 123.09375 217.5625 C 123.941406 218.257812 124.800781 218.929688 125.679688 219.582031 C 126.558594 220.234375 127.457031 220.863281 128.363281 221.472656 C 129.273438 222.082031 130.199219 222.667969 131.136719 223.230469 C 132.078125 223.792969 133.027344 224.332031 133.996094 224.847656 C 134.960938 225.363281 135.9375 225.855469 136.925781 226.324219 C 137.914062 226.789062 138.917969 227.234375 139.925781 227.652344 C 140.9375 228.070312 141.960938 228.464844 142.988281 228.835938 C 144.019531 229.203125 145.058594 229.546875 146.105469 229.863281 C 147.152344 230.183594 148.207031 230.472656 149.269531 230.738281 C 150.332031 231.003906 151.398438 231.246094 152.472656 231.457031 C 153.546875 231.671875 154.625 231.859375 155.707031 232.019531 C 156.789062 232.179688 157.875 232.316406 158.964844 232.421875 C 160.054688 232.527344 161.144531 232.609375 162.238281 232.664062 C 163.332031 232.71875 164.425781 232.742188 165.519531 232.742188 C 166.613281 232.742188 167.707031 232.71875 168.800781 232.664062 C 169.894531 232.609375 170.984375 232.527344 172.074219 232.421875 C 173.164062 232.316406 174.25 232.179688 175.332031 232.019531 C 176.414062 231.859375 177.492188 231.671875 178.566406 231.457031 C 179.640625 231.246094 180.707031 231.003906 181.769531 230.738281 C 182.832031 230.472656 183.886719 230.183594 184.933594 229.863281 C 185.980469 229.546875 187.019531 229.203125 188.050781 228.835938 C 189.082031 228.464844 190.101562 228.070312 191.113281 227.652344 C 192.125 227.234375 193.125 226.789062 194.113281 226.324219 C 195.101562 225.855469 196.082031 225.363281 197.046875 224.847656 C 198.011719 224.332031 198.964844 223.792969 199.902344 223.230469 C 200.839844 222.667969 201.765625 222.082031 202.675781 221.472656 C 203.585938 220.863281 204.480469 220.234375 205.359375 219.582031 C 206.238281 218.929688 207.101562 218.257812 207.945312 217.5625 C 208.792969 216.867188 209.621094 216.15625 210.433594 215.417969 C 211.242188 214.683594 212.035156 213.929688 212.808594 213.15625 C 213.582031 212.382812 214.339844 211.589844 215.074219 210.777344 C 215.808594 209.96875 216.523438 209.140625 217.21875 208.292969 C 217.910156 207.445312 218.585938 206.585938 219.238281 205.707031 C 219.890625 204.824219 220.519531 203.929688 221.125 203.019531 C 221.734375 202.113281 222.320312 201.1875 222.882812 200.25 C 223.445312 199.308594 223.984375 198.359375 224.5 197.390625 C 225.015625 196.425781 225.507812 195.449219 225.976562 194.460938 C 226.445312 193.472656 226.886719 192.46875 227.308594 191.460938 C 227.726562 190.449219 228.121094 189.425781 228.488281 188.398438 C 228.855469 187.367188 229.199219 186.328125 229.519531 185.28125 C 229.835938 184.234375 230.128906 183.179688 230.394531 182.117188 C 230.660156 181.054688 230.898438 179.988281 231.113281 178.914062 C 231.328125 177.839844 231.511719 176.761719 231.675781 175.679688 C 231.835938 174.597656 231.96875 173.511719 232.074219 172.421875 C 232.183594 171.332031 232.261719 170.242188 232.316406 169.148438 C 232.371094 168.054688 232.398438 166.960938 232.398438 165.867188 C 232.398438 164.773438 232.371094 163.679688 232.316406 162.585938 C 232.261719 161.492188 232.183594 160.402344 232.074219 159.3125 C 231.96875 158.222656 231.835938 157.136719 231.675781 156.054688 C 231.511719 154.972656 231.328125 153.894531 231.113281 152.820312 C 230.898438 151.746094 230.660156 150.679688 230.394531 149.617188 C 230.128906 148.554688 229.835938 147.5 229.519531 146.453125 C 229.199219 145.40625 228.855469 144.367188 228.488281 143.335938 C 228.121094 142.304688 227.726562 141.285156 227.308594 140.273438 C 226.886719 139.261719 226.445312 138.261719 225.976562 137.273438 C 225.507812 136.28125 225.015625 135.304688 224.5 134.339844 C 223.984375 133.375 223.445312 132.421875 222.882812 131.484375 C 222.320312 130.546875 221.734375 129.621094 221.125 128.710938 C 220.519531 127.800781 219.890625 126.90625 219.238281 126.027344 C 218.585938 125.148438 217.910156 124.285156 217.21875 123.441406 C 216.523438 122.59375 215.808594 121.765625 215.074219 120.953125 C 214.339844 120.144531 213.582031 119.351562 212.808594 118.578125 C 212.035156 117.804688 211.242188 117.046875 210.433594 116.3125 C 209.621094 115.578125 208.792969 114.863281 207.945312 114.167969 C 207.101562 113.476562 206.238281 112.800781 205.359375 112.148438 C 204.480469 111.496094 203.585938 110.867188 202.675781 110.257812 C 201.765625 109.652344 200.839844 109.066406 199.902344 108.503906 C 198.964844 107.941406 198.011719 107.402344 197.046875 106.886719 C 196.082031 106.371094 195.101562 105.878906 194.113281 105.410156 C 193.125 104.941406 192.125 104.5 191.113281 104.078125 C 190.101562 103.660156 189.082031 103.265625 188.050781 102.898438 C 187.019531 102.53125 185.980469 102.1875 184.933594 101.867188 C 183.886719 101.550781 182.832031 101.257812 181.769531 100.992188 C 180.707031 100.726562 179.640625 100.488281 178.566406 100.273438 C 177.492188 100.058594 176.414062 99.875 175.332031 99.710938 C 174.25 99.550781 173.164062 99.417969 172.074219 99.3125 C 170.984375 99.203125 169.894531 99.125 168.800781 99.070312 C 167.707031 99.015625 166.613281 98.988281 165.519531 98.988281 Z M 165.519531 75.492188 " fill-opacity="1" fill-rule="nonzero"/></g><g clip-path="url(#bf3cf16f4f)"><path fill="#b2ceaf" d="M 179.023438 76.507812 C 180.394531 76.714844 181.757812 76.953125 183.117188 77.222656 C 184.472656 77.492188 185.824219 77.792969 187.171875 78.121094 C 188.515625 78.453125 189.851562 78.816406 191.179688 79.210938 C 192.507812 79.605469 193.824219 80.027344 195.132812 80.480469 C 196.441406 80.933594 197.738281 81.417969 199.027344 81.929688 C 200.3125 82.445312 201.585938 82.988281 202.847656 83.558594 C 204.109375 84.132812 205.355469 84.730469 206.589844 85.363281 C 207.824219 85.992188 209.039062 86.648438 210.246094 87.332031 C 211.449219 88.019531 212.636719 88.730469 213.804688 89.472656 C 214.976562 90.210938 216.128906 90.976562 217.265625 91.769531 C 218.398438 92.5625 219.515625 93.382812 220.613281 94.226562 C 221.710938 95.070312 222.789062 95.941406 223.847656 96.832031 C 224.90625 97.726562 225.941406 98.644531 226.957031 99.585938 C 227.972656 100.527344 228.96875 101.492188 229.9375 102.480469 C 230.910156 103.464844 231.859375 104.476562 232.78125 105.503906 C 233.707031 106.535156 234.609375 107.589844 235.484375 108.660156 C 236.363281 109.730469 237.214844 110.824219 238.039062 111.933594 C 238.867188 113.046875 239.667969 114.175781 240.441406 115.324219 C 241.214844 116.472656 241.964844 117.636719 242.683594 118.820312 C 243.40625 120.003906 244.097656 121.199219 244.765625 122.414062 C 245.429688 123.628906 246.066406 124.859375 246.675781 126.101562 C 247.285156 127.34375 247.867188 128.601562 248.417969 129.871094 C 248.96875 131.144531 249.492188 132.425781 249.984375 133.71875 C 250.476562 135.015625 250.941406 136.320312 251.371094 137.632812 C 251.804688 138.949219 252.207031 140.273438 252.578125 141.609375 C 252.949219 142.941406 253.292969 144.285156 253.601562 145.632812 C 253.910156 146.984375 254.191406 148.339844 254.4375 149.703125 C 254.6875 151.066406 254.902344 152.433594 255.085938 153.804688 C 255.273438 155.179688 255.425781 156.554688 255.546875 157.933594 C 255.667969 159.3125 255.757812 160.695312 255.816406 162.078125 C 255.875 163.460938 255.898438 164.847656 255.894531 166.230469 C 255.890625 167.617188 255.851562 169 255.78125 170.382812 C 255.714844 171.765625 255.613281 173.148438 255.480469 174.523438 C 255.347656 175.902344 255.183594 177.277344 254.988281 178.648438 C 254.789062 180.019531 254.5625 181.386719 254.304688 182.746094 C 254.046875 184.105469 253.757812 185.460938 253.433594 186.808594 C 253.113281 188.15625 252.761719 189.496094 252.378906 190.824219 C 251.996094 192.15625 251.585938 193.476562 251.140625 194.789062 C 250.699219 196.101562 250.226562 197.402344 249.722656 198.695312 C 249.21875 199.984375 248.6875 201.261719 248.125 202.527344 C 247.5625 203.792969 246.972656 205.046875 246.355469 206.285156 C 245.734375 207.523438 245.085938 208.746094 244.410156 209.957031 C 243.734375 211.164062 243.03125 212.355469 242.300781 213.535156 C 241.570312 214.710938 240.816406 215.871094 240.03125 217.011719 C 239.246094 218.152344 238.4375 219.277344 237.601562 220.378906 C 236.765625 221.484375 235.90625 222.570312 235.019531 223.636719 C 234.136719 224.699219 233.226562 225.746094 232.292969 226.765625 C 231.359375 227.789062 230.402344 228.792969 229.425781 229.769531 C 228.445312 230.75 227.445312 231.707031 226.421875 232.640625 C 225.398438 233.574219 224.355469 234.480469 223.289062 235.367188 C 222.222656 236.253906 221.140625 237.113281 220.035156 237.949219 C 218.929688 238.785156 217.808594 239.59375 216.664062 240.378906 C 215.523438 241.160156 214.363281 241.917969 213.1875 242.648438 C 212.011719 243.378906 210.820312 244.082031 209.609375 244.757812 C 208.402344 245.433594 207.175781 246.082031 205.9375 246.699219 C 204.699219 247.320312 203.449219 247.910156 202.179688 248.472656 C 200.914062 249.035156 199.636719 249.566406 198.347656 250.070312 C 197.058594 250.570312 195.757812 251.042969 194.445312 251.488281 C 193.132812 251.929688 191.808594 252.34375 190.480469 252.726562 C 189.148438 253.109375 187.808594 253.460938 186.460938 253.78125 C 185.113281 254.101562 183.761719 254.390625 182.402344 254.652344 C 181.039062 254.910156 179.675781 255.136719 178.304688 255.332031 C 176.933594 255.527344 175.558594 255.691406 174.179688 255.824219 C 172.800781 255.957031 171.417969 256.058594 170.035156 256.128906 C 168.652344 256.199219 167.269531 256.234375 165.882812 256.242188 C 164.5 256.246094 163.117188 256.21875 161.730469 256.160156 C 160.347656 256.105469 158.964844 256.015625 157.585938 255.890625 C 156.207031 255.769531 154.832031 255.617188 153.460938 255.433594 C 152.085938 255.25 150.71875 255.03125 149.355469 254.785156 C 147.996094 254.535156 146.636719 254.257812 145.289062 253.949219 C 143.9375 253.636719 142.597656 253.296875 141.261719 252.925781 C 139.929688 252.554688 138.605469 252.152344 137.289062 251.71875 C 135.972656 251.285156 134.667969 250.824219 133.375 250.332031 C 132.078125 249.839844 130.796875 249.316406 129.527344 248.765625 C 128.257812 248.210938 127 247.632812 125.753906 247.023438 C 124.511719 246.414062 123.28125 245.777344 122.070312 245.109375 C 120.855469 244.445312 119.65625 243.75 118.472656 243.03125 C 117.292969 242.308594 116.125 241.5625 114.976562 240.785156 C 113.828125 240.011719 112.699219 239.210938 111.589844 238.386719 C 110.476562 237.558594 109.386719 236.707031 108.3125 235.832031 C 107.242188 234.953125 106.191406 234.054688 105.160156 233.128906 C 104.128906 232.203125 103.121094 231.253906 102.132812 230.285156 C 101.144531 229.3125 100.183594 228.320312 99.238281 227.304688 C 98.296875 226.289062 97.382812 225.25 96.488281 224.195312 C 95.59375 223.136719 94.722656 222.058594 93.878906 220.960938 C 93.035156 219.863281 92.21875 218.746094 91.425781 217.609375 C 90.632812 216.476562 89.867188 215.320312 89.125 214.152344 C 88.386719 212.980469 87.671875 211.792969 86.988281 210.589844 C 86.300781 209.386719 85.644531 208.167969 85.015625 206.933594 C 84.386719 205.703125 83.785156 204.453125 83.214844 203.191406 C 82.640625 201.929688 82.097656 200.65625 81.585938 199.371094 C 81.070312 198.085938 80.589844 196.789062 80.132812 195.480469 C 79.679688 194.171875 79.257812 192.851562 78.863281 191.523438 C 78.472656 190.199219 78.109375 188.859375 77.777344 187.515625 C 77.445312 186.171875 77.144531 184.820312 76.875 183.460938 C 76.605469 182.105469 76.367188 180.738281 76.160156 179.371094 C 76.042969 178.609375 76.003906 177.839844 76.039062 177.070312 C 76.078125 176.300781 76.1875 175.539062 76.371094 174.792969 C 76.558594 174.042969 76.816406 173.320312 77.140625 172.621094 C 77.46875 171.921875 77.863281 171.261719 78.320312 170.640625 C 78.777344 170.019531 79.292969 169.449219 79.863281 168.929688 C 80.433594 168.410156 81.046875 167.953125 81.710938 167.554688 C 82.371094 167.15625 83.0625 166.824219 83.789062 166.5625 C 84.515625 166.300781 85.257812 166.113281 86.019531 166 C 86.785156 165.882812 87.550781 165.84375 88.320312 165.878906 C 89.09375 165.914062 89.851562 166.023438 90.601562 166.210938 C 91.347656 166.394531 92.074219 166.652344 92.769531 166.980469 C 93.46875 167.308594 94.128906 167.703125 94.75 168.160156 C 95.371094 168.617188 95.941406 169.132812 96.460938 169.703125 C 96.980469 170.273438 97.4375 170.886719 97.835938 171.546875 C 98.234375 172.207031 98.566406 172.902344 98.828125 173.625 C 99.089844 174.351562 99.277344 175.097656 99.394531 175.859375 C 99.699219 177.886719 100.097656 179.898438 100.589844 181.886719 C 101.082031 183.878906 101.664062 185.84375 102.335938 187.78125 C 103.007812 189.71875 103.765625 191.621094 104.613281 193.488281 C 105.460938 195.355469 106.390625 197.179688 107.40625 198.960938 C 108.421875 200.746094 109.515625 202.476562 110.691406 204.15625 C 111.863281 205.839844 113.113281 207.460938 114.4375 209.027344 C 115.757812 210.59375 117.152344 212.097656 118.613281 213.535156 C 120.074219 214.972656 121.601562 216.34375 123.1875 217.640625 C 124.773438 218.9375 126.417969 220.160156 128.117188 221.308594 C 129.820312 222.453125 131.566406 223.519531 133.367188 224.507812 C 135.164062 225.492188 137.003906 226.394531 138.886719 227.210938 C 140.765625 228.027344 142.679688 228.757812 144.628906 229.398438 C 146.578125 230.039062 148.550781 230.585938 150.546875 231.046875 C 152.546875 231.503906 154.5625 231.871094 156.59375 232.144531 C 158.628906 232.417969 160.667969 232.597656 162.71875 232.683594 C 164.765625 232.769531 166.8125 232.761719 168.863281 232.660156 C 170.910156 232.558594 172.949219 232.363281 174.980469 232.070312 C 177.011719 231.78125 179.023438 231.398438 181.015625 230.921875 C 183.011719 230.449219 184.980469 229.882812 186.921875 229.226562 C 188.867188 228.570312 190.773438 227.824219 192.648438 226.992188 C 194.523438 226.164062 196.355469 225.246094 198.144531 224.246094 C 199.9375 223.246094 201.675781 222.164062 203.367188 221.003906 C 205.058594 219.84375 206.691406 218.609375 208.269531 217.296875 C 209.847656 215.988281 211.359375 214.605469 212.808594 213.15625 C 214.261719 211.707031 215.640625 210.191406 216.949219 208.613281 C 218.261719 207.039062 219.496094 205.40625 220.65625 203.714844 C 221.820312 202.023438 222.898438 200.28125 223.898438 198.492188 C 224.898438 196.703125 225.816406 194.871094 226.648438 192.996094 C 227.480469 191.121094 228.222656 189.210938 228.878906 187.269531 C 229.535156 185.328125 230.101562 183.359375 230.578125 181.363281 C 231.050781 179.367188 231.433594 177.355469 231.726562 175.324219 C 232.015625 173.296875 232.210938 171.257812 232.3125 169.207031 C 232.417969 167.160156 232.425781 165.113281 232.339844 163.0625 C 232.253906 161.015625 232.074219 158.972656 231.800781 156.941406 C 231.527344 154.910156 231.160156 152.894531 230.699219 150.894531 C 230.242188 148.894531 229.691406 146.921875 229.050781 144.976562 C 228.410156 143.027344 227.679688 141.113281 226.863281 139.230469 C 226.046875 137.351562 225.148438 135.511719 224.160156 133.710938 C 223.175781 131.914062 222.109375 130.164062 220.960938 128.464844 C 219.816406 126.765625 218.59375 125.121094 217.292969 123.535156 C 215.996094 121.945312 214.628906 120.421875 213.191406 118.960938 C 211.75 117.5 210.25 116.105469 208.683594 114.78125 C 207.117188 113.457031 205.492188 112.210938 203.8125 111.035156 C 202.128906 109.863281 200.398438 108.765625 198.617188 107.753906 C 196.835938 106.738281 195.007812 105.804688 193.140625 104.960938 C 191.273438 104.113281 189.371094 103.351562 187.433594 102.679688 C 185.496094 102.007812 183.53125 101.425781 181.542969 100.9375 C 179.550781 100.445312 177.542969 100.046875 175.511719 99.738281 C 174.75 99.625 174.007812 99.4375 173.28125 99.175781 C 172.554688 98.910156 171.863281 98.582031 171.203125 98.183594 C 170.539062 97.785156 169.925781 97.328125 169.355469 96.804688 C 168.785156 96.285156 168.269531 95.714844 167.8125 95.097656 C 167.355469 94.476562 166.960938 93.816406 166.632812 93.117188 C 166.308594 92.417969 166.050781 91.695312 165.863281 90.945312 C 165.679688 90.199219 165.570312 89.4375 165.53125 88.667969 C 165.496094 87.898438 165.535156 87.128906 165.652344 86.367188 C 165.765625 85.605469 165.957031 84.859375 166.21875 84.132812 C 166.480469 83.410156 166.808594 82.714844 167.207031 82.054688 C 167.605469 81.394531 168.066406 80.78125 168.585938 80.210938 C 169.105469 79.640625 169.675781 79.125 170.296875 78.667969 C 170.917969 78.210938 171.578125 77.816406 172.273438 77.488281 C 172.972656 77.160156 173.695312 76.902344 174.445312 76.71875 C 175.195312 76.53125 175.953125 76.421875 176.722656 76.386719 C 177.496094 76.351562 178.261719 76.390625 179.023438 76.507812 Z M 179.023438 76.507812 " fill-opacity="1" fill-rule="nonzero"/></g></svg>