<svg xmlns="http://www.w3.org/2000/svg" xmlns:xlink="http://www.w3.org/1999/xlink" width="855" zoomAndPan="magnify" viewBox="0 0 641.25 192.749996" height="257" preserveAspectRatio="xMidYMid meet" version="1.0"><defs><g/><clipPath id="b38bea4053"><path d="M 75.425781 86.128906 L 479.902344 86.128906 L 479.902344 106.351562 L 75.425781 106.351562 Z M 75.425781 86.128906 " clip-rule="nonzero"/></clipPath><clipPath id="e6abd8007f"><path d="M 75.425781 86.128906 L 379 86.128906 L 379 106.351562 L 75.425781 106.351562 Z M 75.425781 86.128906 " clip-rule="nonzero"/></clipPath></defs><g fill="#ffffff" fill-opacity="1"><g transform="translate(500.124561, 108.225974)"><g><path d="M 18.109375 -23.078125 L 7.8125 0 L 4.5 0 L 14.765625 -22.25 L 1.3125 -22.25 L 1.3125 -24.84375 L 18.109375 -24.84375 Z M 18.109375 -23.078125 "/></g></g><g transform="translate(519.752425, 108.225974)"><g><path d="M 3.515625 -12.453125 L 4.78125 -24.84375 L 17.515625 -24.84375 L 17.515625 -21.9375 L 7.453125 -21.9375 L 6.703125 -15.15625 C 7.921875 -15.875 9.304688 -16.234375 10.859375 -16.234375 C 13.117188 -16.234375 14.914062 -15.484375 16.25 -13.984375 C 17.582031 -12.484375 18.25 -10.460938 18.25 -7.921875 C 18.25 -5.359375 17.554688 -3.335938 16.171875 -1.859375 C 14.785156 -0.390625 12.851562 0.34375 10.375 0.34375 C 8.175781 0.34375 6.382812 -0.265625 5 -1.484375 C 3.613281 -2.703125 2.820312 -4.382812 2.625 -6.53125 L 5.609375 -6.53125 C 5.804688 -5.113281 6.3125 -4.039062 7.125 -3.3125 C 7.945312 -2.59375 9.03125 -2.234375 10.375 -2.234375 C 11.84375 -2.234375 12.992188 -2.734375 13.828125 -3.734375 C 14.671875 -4.734375 15.09375 -6.117188 15.09375 -7.890625 C 15.09375 -9.546875 14.640625 -10.875 13.734375 -11.875 C 12.828125 -12.882812 11.625 -13.390625 10.125 -13.390625 C 8.75 -13.390625 7.664062 -13.09375 6.875 -12.5 L 6.046875 -11.8125 Z M 3.515625 -12.453125 "/></g></g><g transform="translate(539.380288, 108.225974)"><g><path d="M 1.796875 -20.078125 C 1.796875 -21.566406 2.269531 -22.789062 3.21875 -23.75 C 4.164062 -24.71875 5.382812 -25.203125 6.875 -25.203125 C 8.382812 -25.203125 9.609375 -24.71875 10.546875 -23.75 C 11.492188 -22.78125 11.96875 -21.519531 11.96875 -19.96875 L 11.96875 -18.75 C 11.96875 -17.25 11.488281 -16.023438 10.53125 -15.078125 C 9.582031 -14.128906 8.375 -13.65625 6.90625 -13.65625 C 5.425781 -13.65625 4.203125 -14.128906 3.234375 -15.078125 C 2.273438 -16.023438 1.796875 -17.289062 1.796875 -18.875 Z M 4.140625 -18.75 C 4.140625 -17.863281 4.390625 -17.132812 4.890625 -16.5625 C 5.398438 -15.988281 6.070312 -15.703125 6.90625 -15.703125 C 7.71875 -15.703125 8.367188 -15.976562 8.859375 -16.53125 C 9.359375 -17.09375 9.609375 -17.859375 9.609375 -18.828125 L 9.609375 -20.078125 C 9.609375 -20.960938 9.363281 -21.691406 8.875 -22.265625 C 8.382812 -22.847656 7.71875 -23.140625 6.875 -23.140625 C 6.03125 -23.140625 5.363281 -22.847656 4.875 -22.265625 C 4.382812 -21.691406 4.140625 -20.9375 4.140625 -20 Z M 13.890625 -6.09375 C 13.890625 -7.582031 14.363281 -8.804688 15.3125 -9.765625 C 16.269531 -10.734375 17.492188 -11.21875 18.984375 -11.21875 C 20.472656 -11.21875 21.691406 -10.738281 22.640625 -9.78125 C 23.597656 -8.820312 24.078125 -7.550781 24.078125 -5.96875 L 24.078125 -4.765625 C 24.078125 -3.273438 23.601562 -2.046875 22.65625 -1.078125 C 21.707031 -0.117188 20.492188 0.359375 19.015625 0.359375 C 17.535156 0.359375 16.3125 -0.113281 15.34375 -1.0625 C 14.375 -2.007812 13.890625 -3.273438 13.890625 -4.859375 Z M 16.25 -4.765625 C 16.25 -3.859375 16.5 -3.117188 17 -2.546875 C 17.5 -1.972656 18.171875 -1.6875 19.015625 -1.6875 C 19.828125 -1.6875 20.476562 -1.96875 20.96875 -2.53125 C 21.457031 -3.09375 21.703125 -3.859375 21.703125 -4.828125 L 21.703125 -6.09375 C 21.703125 -6.988281 21.453125 -7.71875 20.953125 -8.28125 C 20.460938 -8.851562 19.804688 -9.140625 18.984375 -9.140625 C 18.171875 -9.140625 17.507812 -8.859375 17 -8.296875 C 16.5 -7.734375 16.25 -6.976562 16.25 -6.03125 Z M 7.625 -1.875 L 5.84375 -3 L 17.96875 -22.421875 L 19.765625 -21.296875 Z M 7.625 -1.875 "/></g></g></g><g clip-path="url(#b38bea4053)"><path fill="#ffffff" d="M 85.539062 86.128906 L 469.789062 86.128906 C 470.453125 86.128906 471.109375 86.195312 471.761719 86.324219 C 472.414062 86.453125 473.046875 86.644531 473.660156 86.898438 C 474.273438 87.152344 474.855469 87.464844 475.40625 87.832031 C 475.957031 88.203125 476.46875 88.621094 476.9375 89.089844 C 477.410156 89.5625 477.828125 90.070312 478.195312 90.625 C 478.566406 91.175781 478.875 91.757812 479.132812 92.371094 C 479.386719 92.984375 479.578125 93.617188 479.707031 94.269531 C 479.835938 94.921875 479.902344 95.578125 479.902344 96.242188 C 479.902344 96.90625 479.835938 97.5625 479.707031 98.214844 C 479.578125 98.867188 479.386719 99.496094 479.132812 100.109375 C 478.875 100.722656 478.566406 101.308594 478.195312 101.859375 C 477.828125 102.410156 477.410156 102.921875 476.9375 103.390625 C 476.46875 103.859375 475.957031 104.28125 475.40625 104.648438 C 474.855469 105.019531 474.273438 105.328125 473.660156 105.582031 C 473.046875 105.835938 472.414062 106.03125 471.761719 106.160156 C 471.109375 106.289062 470.453125 106.351562 469.789062 106.351562 L 85.539062 106.351562 C 84.875 106.351562 84.214844 106.289062 83.566406 106.160156 C 82.914062 106.03125 82.28125 105.835938 81.667969 105.582031 C 81.054688 105.328125 80.472656 105.019531 79.917969 104.648438 C 79.367188 104.28125 78.855469 103.859375 78.386719 103.390625 C 77.917969 102.921875 77.5 102.410156 77.128906 101.859375 C 76.761719 101.308594 76.449219 100.722656 76.195312 100.109375 C 75.941406 99.496094 75.75 98.867188 75.621094 98.214844 C 75.488281 97.5625 75.425781 96.90625 75.425781 96.242188 C 75.425781 95.578125 75.488281 94.921875 75.621094 94.269531 C 75.75 93.617188 75.941406 92.984375 76.195312 92.371094 C 76.449219 91.757812 76.761719 91.175781 77.128906 90.625 C 77.5 90.070312 77.917969 89.5625 78.386719 89.089844 C 78.855469 88.621094 79.367188 88.203125 79.917969 87.832031 C 80.472656 87.464844 81.054688 87.152344 81.667969 86.898438 C 82.28125 86.644531 82.914062 86.453125 83.566406 86.324219 C 84.214844 86.195312 84.875 86.128906 85.539062 86.128906 Z M 85.539062 86.128906 " fill-opacity="1" fill-rule="nonzero"/></g><g clip-path="url(#e6abd8007f)"><path fill="#b2ceaf" d="M 85.539062 86.128906 L 368.671875 86.128906 C 369.335938 86.128906 369.992188 86.195312 370.644531 86.324219 C 371.292969 86.453125 371.925781 86.644531 372.539062 86.898438 C 373.152344 87.152344 373.734375 87.464844 374.289062 87.832031 C 374.839844 88.203125 375.351562 88.621094 375.820312 89.089844 C 376.289062 89.5625 376.707031 90.070312 377.078125 90.625 C 377.445312 91.175781 377.757812 91.757812 378.011719 92.371094 C 378.265625 92.984375 378.457031 93.617188 378.585938 94.269531 C 378.71875 94.921875 378.78125 95.578125 378.78125 96.242188 C 378.78125 96.90625 378.71875 97.5625 378.585938 98.214844 C 378.457031 98.867188 378.265625 99.496094 378.011719 100.109375 C 377.757812 100.722656 377.445312 101.308594 377.078125 101.859375 C 376.707031 102.410156 376.289062 102.921875 375.820312 103.390625 C 375.351562 103.859375 374.839844 104.28125 374.289062 104.648438 C 373.734375 105.019531 373.152344 105.328125 372.539062 105.582031 C 371.925781 105.835938 371.292969 106.03125 370.644531 106.160156 C 369.992188 106.289062 369.335938 106.351562 368.671875 106.351562 L 85.539062 106.351562 C 84.875 106.351562 84.214844 106.289062 83.566406 106.160156 C 82.914062 106.03125 82.28125 105.835938 81.667969 105.582031 C 81.054688 105.328125 80.472656 105.019531 79.917969 104.648438 C 79.367188 104.28125 78.855469 103.859375 78.386719 103.390625 C 77.917969 102.921875 77.5 102.410156 77.128906 101.859375 C 76.761719 101.308594 76.449219 100.722656 76.195312 100.109375 C 75.941406 99.496094 75.75 98.867188 75.621094 98.214844 C 75.488281 97.5625 75.425781 96.90625 75.425781 96.242188 C 75.425781 95.578125 75.488281 94.921875 75.621094 94.269531 C 75.75 93.617188 75.941406 92.984375 76.195312 92.371094 C 76.449219 91.757812 76.761719 91.175781 77.128906 90.625 C 77.5 90.070312 77.917969 89.5625 78.386719 89.089844 C 78.855469 88.621094 79.367188 88.203125 79.917969 87.832031 C 80.472656 87.464844 81.054688 87.152344 81.667969 86.898438 C 82.28125 86.644531 82.914062 86.453125 83.566406 86.324219 C 84.214844 86.195312 84.875 86.128906 85.539062 86.128906 Z M 85.539062 86.128906 " fill-opacity="1" fill-rule="nonzero"/></g></svg>