<svg xmlns="http://www.w3.org/2000/svg" xmlns:xlink="http://www.w3.org/1999/xlink" width="855" zoomAndPan="magnify" viewBox="0 0 641.25 192.749996" height="257" preserveAspectRatio="xMidYMid meet" version="1.0"><defs><g/><clipPath id="7f1d7e9faa"><path d="M 75.425781 86.128906 L 479.902344 86.128906 L 479.902344 106.351562 L 75.425781 106.351562 Z M 75.425781 86.128906 " clip-rule="nonzero"/></clipPath><clipPath id="1c566e37cd"><path d="M 75.425781 86.128906 L 400 86.128906 L 400 106.351562 L 75.425781 106.351562 Z M 75.425781 86.128906 " clip-rule="nonzero"/></clipPath></defs><g fill="#ffffff" fill-opacity="1"><g transform="translate(500.124561, 108.225974)"><g><path d="M 17.140625 -18.359375 C 17.140625 -17.117188 16.8125 -16.015625 16.15625 -15.046875 C 15.5 -14.085938 14.613281 -13.332031 13.5 -12.78125 C 14.800781 -12.226562 15.828125 -11.414062 16.578125 -10.34375 C 17.335938 -9.269531 17.71875 -8.054688 17.71875 -6.703125 C 17.71875 -4.554688 16.988281 -2.84375 15.53125 -1.5625 C 14.082031 -0.289062 12.175781 0.34375 9.8125 0.34375 C 7.425781 0.34375 5.507812 -0.296875 4.0625 -1.578125 C 2.625 -2.859375 1.90625 -4.566406 1.90625 -6.703125 C 1.90625 -8.046875 2.269531 -9.257812 3 -10.34375 C 3.738281 -11.425781 4.757812 -12.242188 6.0625 -12.796875 C 4.957031 -13.347656 4.082031 -14.101562 3.4375 -15.0625 C 2.800781 -16.03125 2.484375 -17.128906 2.484375 -18.359375 C 2.484375 -20.453125 3.15625 -22.113281 4.5 -23.34375 C 5.84375 -24.570312 7.613281 -25.1875 9.8125 -25.1875 C 12 -25.1875 13.765625 -24.570312 15.109375 -23.34375 C 16.460938 -22.113281 17.140625 -20.453125 17.140625 -18.359375 Z M 14.5625 -6.78125 C 14.5625 -8.164062 14.117188 -9.296875 13.234375 -10.171875 C 12.347656 -11.046875 11.191406 -11.484375 9.765625 -11.484375 C 8.347656 -11.484375 7.207031 -11.050781 6.34375 -10.1875 C 5.488281 -9.320312 5.0625 -8.179688 5.0625 -6.765625 C 5.0625 -5.359375 5.476562 -4.25 6.3125 -3.4375 C 7.15625 -2.632812 8.320312 -2.234375 9.8125 -2.234375 C 11.289062 -2.234375 12.453125 -2.640625 13.296875 -3.453125 C 14.140625 -4.265625 14.5625 -5.375 14.5625 -6.78125 Z M 9.8125 -22.59375 C 8.570312 -22.59375 7.566406 -22.207031 6.796875 -21.4375 C 6.035156 -20.675781 5.65625 -19.632812 5.65625 -18.3125 C 5.65625 -17.050781 6.03125 -16.03125 6.78125 -15.25 C 7.539062 -14.46875 8.550781 -14.078125 9.8125 -14.078125 C 11.070312 -14.078125 12.082031 -14.46875 12.84375 -15.25 C 13.601562 -16.03125 13.984375 -17.050781 13.984375 -18.3125 C 13.984375 -19.570312 13.585938 -20.597656 12.796875 -21.390625 C 12.015625 -22.191406 11.019531 -22.59375 9.8125 -22.59375 Z M 9.8125 -22.59375 "/></g></g><g transform="translate(519.752425, 108.225974)"><g><path d="M 17.640625 -10.59375 C 17.640625 -6.894531 17.007812 -4.144531 15.75 -2.34375 C 14.488281 -0.550781 12.515625 0.34375 9.828125 0.34375 C 7.179688 0.34375 5.21875 -0.535156 3.9375 -2.296875 C 2.664062 -4.054688 2.007812 -6.679688 1.96875 -10.171875 L 1.96875 -14.390625 C 1.96875 -18.035156 2.597656 -20.742188 3.859375 -22.515625 C 5.117188 -24.296875 7.097656 -25.1875 9.796875 -25.1875 C 12.472656 -25.1875 14.441406 -24.328125 15.703125 -22.609375 C 16.960938 -20.898438 17.609375 -18.257812 17.640625 -14.6875 Z M 14.484375 -14.921875 C 14.484375 -17.585938 14.109375 -19.53125 13.359375 -20.75 C 12.609375 -21.976562 11.421875 -22.59375 9.796875 -22.59375 C 8.179688 -22.59375 7.003906 -21.984375 6.265625 -20.765625 C 5.523438 -19.546875 5.144531 -17.675781 5.125 -15.15625 L 5.125 -10.109375 C 5.125 -7.421875 5.507812 -5.4375 6.28125 -4.15625 C 7.0625 -2.875 8.242188 -2.234375 9.828125 -2.234375 C 11.390625 -2.234375 12.546875 -2.835938 13.296875 -4.046875 C 14.054688 -5.253906 14.453125 -7.15625 14.484375 -9.75 Z M 14.484375 -14.921875 "/></g></g><g transform="translate(539.380288, 108.225974)"><g><path d="M 1.796875 -20.078125 C 1.796875 -21.566406 2.269531 -22.789062 3.21875 -23.75 C 4.164062 -24.71875 5.382812 -25.203125 6.875 -25.203125 C 8.382812 -25.203125 9.609375 -24.71875 10.546875 -23.75 C 11.492188 -22.78125 11.96875 -21.519531 11.96875 -19.96875 L 11.96875 -18.75 C 11.96875 -17.25 11.488281 -16.023438 10.53125 -15.078125 C 9.582031 -14.128906 8.375 -13.65625 6.90625 -13.65625 C 5.425781 -13.65625 4.203125 -14.128906 3.234375 -15.078125 C 2.273438 -16.023438 1.796875 -17.289062 1.796875 -18.875 Z M 4.140625 -18.75 C 4.140625 -17.863281 4.390625 -17.132812 4.890625 -16.5625 C 5.398438 -15.988281 6.070312 -15.703125 6.90625 -15.703125 C 7.71875 -15.703125 8.367188 -15.976562 8.859375 -16.53125 C 9.359375 -17.09375 9.609375 -17.859375 9.609375 -18.828125 L 9.609375 -20.078125 C 9.609375 -20.960938 9.363281 -21.691406 8.875 -22.265625 C 8.382812 -22.847656 7.71875 -23.140625 6.875 -23.140625 C 6.03125 -23.140625 5.363281 -22.847656 4.875 -22.265625 C 4.382812 -21.691406 4.140625 -20.9375 4.140625 -20 Z M 13.890625 -6.09375 C 13.890625 -7.582031 14.363281 -8.804688 15.3125 -9.765625 C 16.269531 -10.734375 17.492188 -11.21875 18.984375 -11.21875 C 20.472656 -11.21875 21.691406 -10.738281 22.640625 -9.78125 C 23.597656 -8.820312 24.078125 -7.550781 24.078125 -5.96875 L 24.078125 -4.765625 C 24.078125 -3.273438 23.601562 -2.046875 22.65625 -1.078125 C 21.707031 -0.117188 20.492188 0.359375 19.015625 0.359375 C 17.535156 0.359375 16.3125 -0.113281 15.34375 -1.0625 C 14.375 -2.007812 13.890625 -3.273438 13.890625 -4.859375 Z M 16.25 -4.765625 C 16.25 -3.859375 16.5 -3.117188 17 -2.546875 C 17.5 -1.972656 18.171875 -1.6875 19.015625 -1.6875 C 19.828125 -1.6875 20.476562 -1.96875 20.96875 -2.53125 C 21.457031 -3.09375 21.703125 -3.859375 21.703125 -4.828125 L 21.703125 -6.09375 C 21.703125 -6.988281 21.453125 -7.71875 20.953125 -8.28125 C 20.460938 -8.851562 19.804688 -9.140625 18.984375 -9.140625 C 18.171875 -9.140625 17.507812 -8.859375 17 -8.296875 C 16.5 -7.734375 16.25 -6.976562 16.25 -6.03125 Z M 7.625 -1.875 L 5.84375 -3 L 17.96875 -22.421875 L 19.765625 -21.296875 Z M 7.625 -1.875 "/></g></g></g><g clip-path="url(#7f1d7e9faa)"><path fill="#ffffff" d="M 85.539062 86.128906 L 469.789062 86.128906 C 470.453125 86.128906 471.109375 86.195312 471.761719 86.324219 C 472.414062 86.453125 473.046875 86.644531 473.660156 86.898438 C 474.273438 87.152344 474.855469 87.464844 475.40625 87.832031 C 475.957031 88.203125 476.46875 88.621094 476.9375 89.089844 C 477.410156 89.5625 477.828125 90.070312 478.195312 90.625 C 478.566406 91.175781 478.875 91.757812 479.132812 92.371094 C 479.386719 92.984375 479.578125 93.617188 479.707031 94.269531 C 479.835938 94.921875 479.902344 95.578125 479.902344 96.242188 C 479.902344 96.90625 479.835938 97.5625 479.707031 98.214844 C 479.578125 98.867188 479.386719 99.496094 479.132812 100.109375 C 478.875 100.722656 478.566406 101.308594 478.195312 101.859375 C 477.828125 102.410156 477.410156 102.921875 476.9375 103.390625 C 476.46875 103.859375 475.957031 104.28125 475.40625 104.648438 C 474.855469 105.019531 474.273438 105.328125 473.660156 105.582031 C 473.046875 105.835938 472.414062 106.03125 471.761719 106.160156 C 471.109375 106.289062 470.453125 106.351562 469.789062 106.351562 L 85.539062 106.351562 C 84.875 106.351562 84.214844 106.289062 83.566406 106.160156 C 82.914062 106.03125 82.28125 105.835938 81.667969 105.582031 C 81.054688 105.328125 80.472656 105.019531 79.917969 104.648438 C 79.367188 104.28125 78.855469 103.859375 78.386719 103.390625 C 77.917969 102.921875 77.5 102.410156 77.128906 101.859375 C 76.761719 101.308594 76.449219 100.722656 76.195312 100.109375 C 75.941406 99.496094 75.75 98.867188 75.621094 98.214844 C 75.488281 97.5625 75.425781 96.90625 75.425781 96.242188 C 75.425781 95.578125 75.488281 94.921875 75.621094 94.269531 C 75.75 93.617188 75.941406 92.984375 76.195312 92.371094 C 76.449219 91.757812 76.761719 91.175781 77.128906 90.625 C 77.5 90.070312 77.917969 89.5625 78.386719 89.089844 C 78.855469 88.621094 79.367188 88.203125 79.917969 87.832031 C 80.472656 87.464844 81.054688 87.152344 81.667969 86.898438 C 82.28125 86.644531 82.914062 86.453125 83.566406 86.324219 C 84.214844 86.195312 84.875 86.128906 85.539062 86.128906 Z M 85.539062 86.128906 " fill-opacity="1" fill-rule="nonzero"/></g><g clip-path="url(#1c566e37cd)"><path fill="#b2ceaf" d="M 85.539062 86.128906 L 388.894531 86.128906 C 389.558594 86.128906 390.214844 86.195312 390.867188 86.324219 C 391.519531 86.453125 392.148438 86.644531 392.761719 86.898438 C 393.375 87.152344 393.960938 87.464844 394.511719 87.832031 C 395.0625 88.203125 395.574219 88.621094 396.042969 89.089844 C 396.511719 89.5625 396.933594 90.070312 397.300781 90.625 C 397.671875 91.175781 397.980469 91.757812 398.234375 92.371094 C 398.488281 92.984375 398.683594 93.617188 398.8125 94.269531 C 398.941406 94.921875 399.003906 95.578125 399.003906 96.242188 C 399.003906 96.90625 398.941406 97.5625 398.8125 98.214844 C 398.683594 98.867188 398.488281 99.496094 398.234375 100.109375 C 397.980469 100.722656 397.671875 101.308594 397.300781 101.859375 C 396.933594 102.410156 396.511719 102.921875 396.042969 103.390625 C 395.574219 103.859375 395.0625 104.28125 394.511719 104.648438 C 393.960938 105.019531 393.375 105.328125 392.761719 105.582031 C 392.148438 105.835938 391.519531 106.03125 390.867188 106.160156 C 390.214844 106.289062 389.558594 106.351562 388.894531 106.351562 L 85.539062 106.351562 C 84.875 106.351562 84.214844 106.289062 83.566406 106.160156 C 82.914062 106.03125 82.28125 105.835938 81.667969 105.582031 C 81.054688 105.328125 80.472656 105.019531 79.917969 104.648438 C 79.367188 104.28125 78.855469 103.859375 78.386719 103.390625 C 77.917969 102.921875 77.5 102.410156 77.128906 101.859375 C 76.761719 101.308594 76.449219 100.722656 76.195312 100.109375 C 75.941406 99.496094 75.75 98.867188 75.621094 98.214844 C 75.488281 97.5625 75.425781 96.90625 75.425781 96.242188 C 75.425781 95.578125 75.488281 94.921875 75.621094 94.269531 C 75.75 93.617188 75.941406 92.984375 76.195312 92.371094 C 76.449219 91.757812 76.761719 91.175781 77.128906 90.625 C 77.5 90.070312 77.917969 89.5625 78.386719 89.089844 C 78.855469 88.621094 79.367188 88.203125 79.917969 87.832031 C 80.472656 87.464844 81.054688 87.152344 81.667969 86.898438 C 82.28125 86.644531 82.914062 86.453125 83.566406 86.324219 C 84.214844 86.195312 84.875 86.128906 85.539062 86.128906 Z M 85.539062 86.128906 " fill-opacity="1" fill-rule="nonzero"/></g></svg>